<?xml version="1.0" encoding="utf-8"?>
<!-- Generator: Adobe Illustrator 17.0.0, SVG Export Plug-In . SVG Version: 6.00 Build 0)  -->
<!DOCTYPE svg PUBLIC "-//W3C//DTD SVG 1.1//EN" "http://www.w3.org/Graphics/SVG/1.1/DTD/svg11.dtd">
<svg version="1.1" id="Layer_1" xmlns="http://www.w3.org/2000/svg" xmlns:xlink="http://www.w3.org/1999/xlink" x="0px" y="0px"
	 width="19.971px" height="20.188px" viewBox="8.661 4.329 19.971 20.188" enable-background="new 8.661 4.329 19.971 20.188"
	 xml:space="preserve">
<g>
	<g>
		<path fill="#4E4E50" d="M28.632,24.518 M28.629,23.13 M21.705,6.462 M28.629,12.029c0-0.218-0.102-0.423-0.276-0.554l-9.29-7.006
			c-0.247-0.187-0.588-0.187-0.835,0l-9.29,7.006c-0.174,0.131-0.276,0.336-0.276,0.554v11.795c0,0.383,0.311,0.694,0.694,0.694
			h18.558c0.397,0,0.719-0.322,0.719-0.719L28.629,12.029z M19.781,23.13h-2.273v-5.032h2.273V23.13z M21.169,23.13v-5.726
			c0-0.383-0.31-0.694-0.694-0.694h-3.661c-0.383,0-0.694,0.311-0.694,0.694v5.726h-6.072V12.375l8.596-6.482l8.596,6.482V23.13
			H21.169z M21.169,23.13"/>
	</g>
</g>
</svg>
