<?xml version="1.0" encoding="utf-8"?>
<!-- Generator: Adobe Illustrator 17.0.0, SVG Export Plug-In . SVG Version: 6.00 Build 0)  -->
<!DOCTYPE svg PUBLIC "-//W3C//DTD SVG 1.1//EN" "http://www.w3.org/Graphics/SVG/1.1/DTD/svg11.dtd">
<svg version="1.1" id="Layer_1" xmlns="http://www.w3.org/2000/svg" xmlns:xlink="http://www.w3.org/1999/xlink" x="0px" y="0px"
	 width="22.038px" height="22.038px" viewBox="6.482 6.481 22.038 22.038" enable-background="new 6.482 6.481 22.038 22.038"
	 xml:space="preserve">
<g>
	<g>
		<g>
			<path fill="#FEFEFE" d="M18.691,16.042c0.304-0.342,0.555-0.689,0.867-0.984c0.96-0.905,2.097-1.363,3.424-1.351
				c0.729,0.006,1.45,0.059,2.153,0.263c1.608,0.465,2.543,1.572,2.989,3.143c0.335,1.178,0.396,2.387,0.398,3.601
				c0.004,2.559-0.007,5.119-0.002,7.678c0,0.239-0.067,0.303-0.303,0.301c-1.318-0.011-2.637-0.012-3.955,0
				c-0.232,0.002-0.282-0.07-0.282-0.289c0.007-2.435,0.01-4.871,0.001-7.306c-0.002-0.61-0.041-1.221-0.212-1.814
				c-0.315-1.093-1.098-1.649-2.243-1.589c-1.564,0.083-2.377,0.856-2.576,2.447c-0.048,0.38-0.07,0.759-0.07,1.142
				c0.002,2.368-0.002,4.737,0.006,7.105c0.001,0.236-0.058,0.306-0.3,0.304c-1.328-0.012-2.656-0.011-3.984-0.001
				c-0.213,0.001-0.274-0.056-0.274-0.271c0.006-4.689,0.006-9.378,0-14.067c0-0.232,0.076-0.286,0.295-0.284
				c1.261,0.01,2.523,0.011,3.784-0.001c0.232-0.002,0.292,0.073,0.287,0.293C18.682,14.92,18.691,15.481,18.691,16.042z"/>
			<path fill="#FEFEFE" d="M11.466,21.4c0,2.32-0.004,4.639,0.005,6.959c0.001,0.258-0.064,0.336-0.33,0.332
				c-1.318-0.015-2.636-0.012-3.954-0.002c-0.212,0.001-0.275-0.051-0.274-0.27c0.006-4.696,0.006-9.394,0.001-14.09
				c0-0.195,0.047-0.264,0.253-0.263c1.337,0.008,2.674,0.012,4.011-0.002c0.257-0.002,0.292,0.097,0.291,0.318
				C11.464,16.723,11.466,19.061,11.466,21.4z"/>
			<path fill="#FEFEFE" d="M11.831,9.413c0.001,1.457-1.18,2.643-2.634,2.644c-1.435,0-2.627-1.187-2.631-2.62
				C6.56,7.986,7.751,6.793,9.202,6.794C10.642,6.795,11.828,7.978,11.831,9.413z"/>
		</g>
	</g>
</g>
</svg>
