<?xml version="1.0" encoding="utf-8"?>
<!-- Generator: Adobe Illustrator 17.0.0, SVG Export Plug-In . SVG Version: 6.00 Build 0)  -->
<!DOCTYPE svg PUBLIC "-//W3C//DTD SVG 1.1//EN" "http://www.w3.org/Graphics/SVG/1.1/DTD/svg11.dtd">
<svg version="1.1" id="Layer_1" xmlns="http://www.w3.org/2000/svg" xmlns:xlink="http://www.w3.org/1999/xlink" x="0px" y="0px"
	 width="22.038px" height="22.038px" viewBox="6.482 6.481 22.038 22.038" enable-background="new 6.482 6.481 22.038 22.038"
	 xml:space="preserve">
<g>
	<g>
		<g>
			<path fill="#FFFFFF" d="M13.461,26.784c8.407,0,13.005-6.965,13.005-13.005c0-0.198-0.004-0.395-0.013-0.591
				c0.892-0.645,1.668-1.45,2.28-2.367c-0.819,0.364-1.701,0.609-2.625,0.719c0.943-0.566,1.668-1.461,2.01-2.529
				c-0.883,0.523-1.861,0.904-2.903,1.11c-0.834-0.888-2.022-1.444-3.337-1.444c-2.524,0-4.572,2.047-4.572,4.571
				c0,0.359,0.04,0.707,0.119,1.043c-3.799-0.191-7.168-2.01-9.422-4.776c-0.392,0.676-0.619,1.46-0.619,2.298
				c0,1.586,0.807,2.985,2.034,3.805c-0.75-0.023-1.454-0.229-2.071-0.572c0,0.018,0,0.036,0,0.057c0,2.214,1.576,4.063,3.667,4.482
				c-0.384,0.104-0.788,0.16-1.205,0.16c-0.294,0-0.581-0.03-0.86-0.083c0.582,1.816,2.269,3.138,4.27,3.175
				c-1.565,1.226-3.535,1.957-5.677,1.957c-0.369,0-0.733-0.021-1.091-0.063C8.476,26.027,10.879,26.784,13.461,26.784"/>
		</g>
	</g>
</g>
</svg>
