<?xml version="1.0" encoding="utf-8"?>
<!-- Generator: Adobe Illustrator 17.0.0, SVG Export Plug-In . SVG Version: 6.00 Build 0)  -->
<!DOCTYPE svg PUBLIC "-//W3C//DTD SVG 1.1//EN" "http://www.w3.org/Graphics/SVG/1.1/DTD/svg11.dtd">
<svg version="1.1" id="Layer_1" xmlns="http://www.w3.org/2000/svg" xmlns:xlink="http://www.w3.org/1999/xlink" x="0px" y="0px"
	 width="40.053px" height="40.053px" viewBox="0 0 40.053 40.053" enable-background="new 0 0 40.053 40.053" xml:space="preserve">
<g>
	<path fill="#F6F7FA" d="M40.053,31.906c0,4.499-3.647,8.146-8.146,8.146H8.146C3.647,40.053,0,36.405,0,31.906V8.146
		C0,3.647,3.647,0,8.146,0h23.76c4.499,0,8.146,3.647,8.146,8.146V31.906z"/>
	<g>
		<g>
			<path fill="#33ADFB" d="M28.643,25.979H16.157c-0.158,0-1.56-0.03-2.029-1.059c-0.509-1.117,0.542-2.323,0.887-2.72
				c0.002-0.003,0.005-0.006,0.008-0.009l0.728-0.812L10.79,9.517L7.365,9.175C6.92,9.131,6.594,8.734,6.639,8.289
				C6.683,7.843,7.08,7.518,7.526,7.563l3.906,0.39c0.296,0.029,0.552,0.219,0.667,0.494l5.344,12.78
				c0.121,0.288,0.065,0.62-0.144,0.853l-1.066,1.189c-0.498,0.572-0.596,0.871-0.615,0.973c0.111,0.063,0.374,0.117,0.539,0.117
				h12.486c0.447,0,0.81,0.363,0.81,0.81C29.453,25.616,29.09,25.979,28.643,25.979z"/>
		</g>
		<g>
			<path fill="#33ADFB" d="M16.694,22.349c-0.41,0-0.762-0.31-0.805-0.727c-0.046-0.445,0.278-0.843,0.723-0.889l10.993-1.136
				l0.817-6.354l-15.683-0.523c-0.447-0.015-0.798-0.39-0.783-0.837c0.015-0.447,0.389-0.8,0.837-0.783l16.574,0.552
				c0.228,0.008,0.442,0.111,0.59,0.285c0.148,0.174,0.216,0.402,0.186,0.628L29.13,20.44c-0.048,0.373-0.346,0.664-0.72,0.703
				l-11.631,1.202C16.75,22.347,16.722,22.349,16.694,22.349z"/>
		</g>
		<g>
			<path fill="#33ADFB" d="M26.911,31.363c-1.34,0-2.431-1.09-2.431-2.43s1.09-2.431,2.431-2.431c1.34,0,2.431,1.09,2.431,2.431
				S28.251,31.363,26.911,31.363z M26.911,28.122c-0.447,0-0.81,0.363-0.81,0.81s0.363,0.81,0.81,0.81c0.447,0,0.81-0.363,0.81-0.81
				S27.358,28.122,26.911,28.122z"/>
		</g>
		<g>
			<path fill="#33ADFB" d="M16.48,31.363c-1.34,0-2.431-1.09-2.431-2.43s1.09-2.431,2.431-2.431c1.34,0,2.431,1.09,2.431,2.431
				S17.82,31.363,16.48,31.363z M16.48,28.122c-0.447,0-0.81,0.363-0.81,0.81s0.363,0.81,0.81,0.81c0.447,0,0.81-0.363,0.81-0.81
				S16.927,28.122,16.48,28.122z"/>
		</g>
	</g>
</g>
</svg>
