<?xml version="1.0" encoding="utf-8"?>
<!-- Generator: Adobe Illustrator 17.0.0, SVG Export Plug-In . SVG Version: 6.00 Build 0)  -->
<!DOCTYPE svg PUBLIC "-//W3C//DTD SVG 1.1//EN" "http://www.w3.org/Graphics/SVG/1.1/DTD/svg11.dtd">
<svg version="1.1" id="Layer_1" xmlns="http://www.w3.org/2000/svg" xmlns:xlink="http://www.w3.org/1999/xlink" x="0px" y="0px"
	 width="20.476px" height="20.441px" viewBox="0 0 20.476 20.441" enable-background="new 0 0 20.476 20.441" xml:space="preserve">
<g>
	<g id="XMLID_1_">
		<g>
			<path fill="#F7CE27" d="M20.476,14.899v4.961c0,0.317-0.264,0.58-0.58,0.58h-4.961c-0.317,0-0.58-0.264-0.58-0.58v-4.961
				c0-0.317,0.264-0.58,0.58-0.58h4.961C20.212,14.319,20.476,14.583,20.476,14.899z"/>
			<path fill="#F7CE27" d="M20.476,7.74v4.961c0,0.317-0.264,0.58-0.58,0.58h-4.961c-0.317,0-0.58-0.264-0.58-0.58V7.74
				c0-0.317,0.264-0.58,0.58-0.58h4.961C20.212,7.159,20.476,7.423,20.476,7.74z"/>
			<path fill="#F7CE27" d="M20.476,0.58v4.961c0,0.317-0.264,0.58-0.58,0.58h-4.961c-0.317,0-0.58-0.264-0.58-0.58V0.58
				c0-0.317,0.264-0.58,0.58-0.58h4.961C20.212,0,20.476,0.264,20.476,0.58z"/>
			<path fill="#F7CE27" d="M13.281,14.899v4.961c0,0.317-0.264,0.58-0.58,0.58H7.74c-0.317,0-0.58-0.264-0.58-0.58v-4.961
				c0-0.317,0.264-0.58,0.58-0.58h4.961C13.035,14.319,13.281,14.583,13.281,14.899z"/>
			<path fill="#F7CE27" d="M13.281,7.74v4.961c0,0.317-0.264,0.58-0.58,0.58H7.74c-0.317,0-0.58-0.264-0.58-0.58V7.74
				c0-0.317,0.264-0.58,0.58-0.58h4.961C13.035,7.159,13.281,7.423,13.281,7.74z"/>
			<path fill="#F7CE27" d="M13.281,0.58v4.961c0,0.317-0.264,0.58-0.58,0.58H7.74c-0.317,0-0.58-0.264-0.58-0.58V0.58
				C7.159,0.264,7.423,0,7.74,0h4.961C13.035,0,13.281,0.264,13.281,0.58z"/>
			<path fill="#F7CE27" d="M6.139,14.899v4.961c0,0.317-0.264,0.58-0.58,0.58H0.581c-0.317,0-0.58-0.264-0.58-0.58v-4.961
				c0-0.317,0.264-0.58,0.58-0.58h4.961C5.875,14.319,6.139,14.583,6.139,14.899z"/>
			<path fill="#F7CE27" d="M6.139,7.74v4.961c0,0.317-0.264,0.58-0.58,0.58H0.581c-0.317,0-0.58-0.264-0.58-0.58V7.74
				c0-0.317,0.264-0.58,0.58-0.58h4.961C5.875,7.159,6.139,7.423,6.139,7.74z"/>
			<path fill="#F7CE27" d="M6.139,0.58v4.961c0,0.317-0.264,0.58-0.58,0.58H0.581C0.264,6.122,0,5.858,0,5.541V0.58
				C0,0.264,0.264,0,0.581,0h4.961C5.875,0,6.139,0.264,6.139,0.58z"/>
		</g>
	</g>
</g>
</svg>
