<?xml version="1.0" encoding="utf-8"?>
<!-- Generator: Adobe Illustrator 17.0.0, SVG Export Plug-In . SVG Version: 6.00 Build 0)  -->
<!DOCTYPE svg PUBLIC "-//W3C//DTD SVG 1.1//EN" "http://www.w3.org/Graphics/SVG/1.1/DTD/svg11.dtd">
<svg version="1.1" id="Layer_1" xmlns="http://www.w3.org/2000/svg" xmlns:xlink="http://www.w3.org/1999/xlink" x="0px" y="0px"
	 width="131.756px" height="20.441px" viewBox="0 0 131.756 20.441" enable-background="new 0 0 131.756 20.441"
	 xml:space="preserve">
<g>
	<g>
		<g id="XMLID_1_">
			<g>
				<path fill="#F7CE27" d="M20.476,14.899v4.961c0,0.317-0.264,0.58-0.58,0.58h-4.961c-0.317,0-0.58-0.264-0.58-0.58v-4.961
					c0-0.317,0.264-0.58,0.58-0.58h4.961C20.212,14.319,20.476,14.583,20.476,14.899z"/>
				<path fill="#F7CE27" d="M20.476,7.74v4.961c0,0.317-0.264,0.58-0.58,0.58h-4.961c-0.317,0-0.58-0.264-0.58-0.58V7.74
					c0-0.317,0.264-0.58,0.58-0.58h4.961C20.212,7.159,20.476,7.423,20.476,7.74z"/>
				<path fill="#F7CE27" d="M20.476,0.58v4.961c0,0.317-0.264,0.58-0.58,0.58h-4.961c-0.317,0-0.58-0.264-0.58-0.58V0.58
					c0-0.317,0.264-0.58,0.58-0.58h4.961C20.212,0,20.476,0.264,20.476,0.58z"/>
				<path fill="#F7CE27" d="M13.281,14.899v4.961c0,0.317-0.264,0.58-0.58,0.58H7.74c-0.317,0-0.58-0.264-0.58-0.58v-4.961
					c0-0.317,0.264-0.58,0.58-0.58h4.961C13.035,14.319,13.281,14.583,13.281,14.899z"/>
				<path fill="#F7CE27" d="M13.281,7.74v4.961c0,0.317-0.264,0.58-0.58,0.58H7.74c-0.317,0-0.58-0.264-0.58-0.58V7.74
					c0-0.317,0.264-0.58,0.58-0.58h4.961C13.035,7.159,13.281,7.423,13.281,7.74z"/>
				<path fill="#F7CE27" d="M13.281,0.58v4.961c0,0.317-0.264,0.58-0.58,0.58H7.74c-0.317,0-0.58-0.264-0.58-0.58V0.58
					C7.159,0.264,7.423,0,7.74,0h4.961C13.035,0,13.281,0.264,13.281,0.58z"/>
				<path fill="#F7CE27" d="M6.139,14.899v4.961c0,0.317-0.264,0.58-0.58,0.58H0.581c-0.317,0-0.58-0.264-0.58-0.58v-4.961
					c0-0.317,0.264-0.58,0.58-0.58h4.961C5.875,14.319,6.139,14.583,6.139,14.899z"/>
				<path fill="#F7CE27" d="M6.139,7.74v4.961c0,0.317-0.264,0.58-0.58,0.58H0.581c-0.317,0-0.58-0.264-0.58-0.58V7.74
					c0-0.317,0.264-0.58,0.58-0.58h4.961C5.875,7.159,6.139,7.423,6.139,7.74z"/>
				<path fill="#F7CE27" d="M6.139,0.58v4.961c0,0.317-0.264,0.58-0.58,0.58H0.581C0.264,6.122,0,5.858,0,5.541V0.58
					C0,0.264,0.264,0,0.581,0h4.961C5.875,0,6.139,0.264,6.139,0.58z"/>
			</g>
		</g>
	</g>
	<g>
		<g>
			<path fill="#4E4E50" d="M32.701,8.004c-0.211-0.756-0.616-2.181-2.797-2.181c-1.267,0-3.131,0.844-3.131,4.433
				c0,2.269,0.897,4.327,3.131,4.327c1.46,0,2.48-0.827,2.797-2.375h2.639c-0.528,2.744-2.322,4.679-5.506,4.679
				c-3.377,0-5.787-2.269-5.787-6.649c0-4.433,2.551-6.685,5.823-6.685c3.8,0,5.33,2.603,5.471,4.486
				C35.358,8.004,32.701,8.004,32.701,8.004z"/>
			<path fill="#4E4E50" d="M45.156,16.518h-2.357v-1.319h-0.035c-0.563,1.003-1.548,1.566-2.85,1.566
				c-1.847,0-3.184-1.055-3.184-3.465V7.142h2.463v5.823c0,1.442,0.844,1.724,1.601,1.724c0.809,0,1.9-0.457,1.9-2.128V7.142h2.463
				V16.518L45.156,16.518z"/>
			<path fill="#4E4E50" d="M49.536,16.518h-2.463V3.852h2.463V16.518z"/>
			<path fill="#4E4E50" d="M54.197,7.142h1.53v1.759h-1.53v5.101c0,0.545,0.018,0.756,1.02,0.756c0.158,0,0.334-0.018,0.51-0.035
				v1.865c-0.387,0.018-0.774,0.035-1.161,0.035H54.25c-2.128,0-2.515-0.809-2.515-2.023V8.901h-1.267V7.142h1.267V4.591h2.463
				V7.142L54.197,7.142z"/>
			<path fill="#4E4E50" d="M64.84,16.518h-2.357v-1.319h-0.035c-0.563,1.003-1.548,1.566-2.85,1.566
				c-1.847,0-3.184-1.055-3.184-3.465V7.142h2.463v5.823c0,1.442,0.844,1.724,1.601,1.724c0.809,0,1.9-0.457,1.9-2.128V7.142h2.463
				L64.84,16.518L64.84,16.518z"/>
			<path fill="#4E4E50" d="M66.652,7.142h2.357V8.76h0.035c0.51-0.95,1.073-1.865,2.568-1.865c0.158,0,0.317,0.018,0.475,0.035
				v2.498c-0.211-0.035-0.475-0.035-0.704-0.035c-1.917,0-2.269,1.196-2.269,2.234v4.89h-2.463V7.142L66.652,7.142z"/>
			<path fill="#4E4E50" d="M80.777,13.774c-0.651,2.252-2.515,2.99-4.134,2.99c-2.639,0-4.679-1.267-4.679-5.137
				c0-1.126,0.387-4.75,4.503-4.75c1.847,0,4.415,0.88,4.415,5.172v0.44h-6.438c0.07,0.704,0.211,2.287,2.199,2.287
				c0.686,0,1.39-0.352,1.583-1.02L80.777,13.774L80.777,13.774z M78.332,10.889c-0.141-1.513-1.108-1.97-1.9-1.97
				c-1.161,0-1.777,0.739-1.917,1.97H78.332z"/>
			<path fill="#4E4E50" d="M84.19,3.852h2.815c1.618,6.931,1.777,7.81,2.005,9.253h0.035c0.229-1.319,0.422-2.603,1.759-9.253h2.797
				c1.478,6.948,1.601,7.617,1.882,9.253h0.035c0.211-1.196,0.422-2.287,2.058-9.253h2.674l-3.571,12.665h-2.533
				c-1.302-6.21-1.53-7.441-1.953-9.868h-0.035c-0.387,2.428-0.598,3.36-1.953,9.868h-2.463L84.19,3.852z"/>
			<path fill="#4E4E50" d="M108.131,14.688c0,1.108,0.246,1.354,0.545,1.46v0.369h-2.656c-0.141-0.44-0.176-0.58-0.229-1.108
				c-0.563,0.58-1.354,1.354-3.026,1.354c-1.407,0-2.85-0.792-2.85-2.727c0-1.829,1.161-2.762,2.727-2.99l2.216-0.334
				c0.387-0.053,0.862-0.211,0.862-0.739c0-1.038-0.985-1.091-1.618-1.091c-1.231,0-1.442,0.756-1.513,1.302h-2.375
				c0.281-2.867,2.269-3.289,4.204-3.289c1.319,0,3.747,0.405,3.747,2.709v5.084H108.131L108.131,14.688z M105.704,11.944
				c-0.246,0.193-0.651,0.352-1.671,0.51c-0.915,0.158-1.671,0.387-1.671,1.407c0,0.862,0.668,1.126,1.143,1.126
				c1.091,0,2.199-0.704,2.199-1.847V11.944z"/>
			<path fill="#4E4E50" d="M112.388,16.518h-2.463V3.852h2.463V16.518z"/>
			<path fill="#4E4E50" d="M116.821,16.518h-2.463V3.852h2.463V16.518z"/>
			<path fill="#4E4E50" d="M124.016,9.992c-0.106-0.598-0.317-1.231-1.654-1.231s-1.513,0.51-1.513,0.915
				c0,1.478,5.875,0.405,5.875,3.87c0,2.727-2.639,3.219-4.116,3.219c-2.128,0-4.45-0.739-4.521-3.237h2.533
				c0,0.792,0.493,1.372,2.041,1.372c1.267,0,1.566-0.616,1.566-0.967c0-1.566-5.823-0.387-5.823-3.905
				c0-1.372,0.862-3.131,3.8-3.131c1.829,0,4.028,0.457,4.222,3.096H124.016L124.016,9.992z"/>
		</g>
		<g>
			<path fill="#4E4E50" d="M129.187,8.655h-0.51v1.478h-0.51V8.655h-0.51V8.268h1.53V8.655L129.187,8.655z M130.647,9.394
				l0.422-1.126h0.686v1.865h-0.475V8.866h-0.018l-0.44,1.267h-0.369l-0.44-1.267h-0.018v1.267h-0.475V8.268h0.686L130.647,9.394z"
				/>
		</g>
	</g>
</g>
</svg>
