<?xml version="1.0" encoding="utf-8"?>
<!-- Generator: Adobe Illustrator 17.0.0, SVG Export Plug-In . SVG Version: 6.00 Build 0)  -->
<!DOCTYPE svg PUBLIC "-//W3C//DTD SVG 1.1//EN" "http://www.w3.org/Graphics/SVG/1.1/DTD/svg11.dtd">
<svg version="1.1" id="Layer_1" xmlns="http://www.w3.org/2000/svg" xmlns:xlink="http://www.w3.org/1999/xlink" x="0px" y="0px"
	 width="40.053px" height="40.053px" viewBox="0 0 40.053 40.053" enable-background="new 0 0 40.053 40.053" xml:space="preserve">
<g>
	<path fill="#F6F7FA" d="M40.053,31.906c0,4.499-3.647,8.146-8.146,8.146H8.146C3.647,40.053,0,36.405,0,31.906V8.146
		C0,3.647,3.647,0,8.146,0h23.76c4.499,0,8.146,3.647,8.146,8.146V31.906z"/>
	<g>
		<path fill="#29ABE2" d="M30.689,19.086c0-0.029-1.705-2.083-3.857-3.65c-4.623-3.365-8.998-3.358-13.611,0
			c-1.832,1.333-3.203,2.859-3.857,3.65c-0.45,0.544-0.45,1.333,0,1.876c2.603,3.145,6.545,6.175,10.663,6.175
			c4.119,0,8.061-3.03,10.663-6.175C31.139,20.419,31.139,19.63,30.689,19.086z M29.645,20.099
			c-1.103,1.333-5.058,5.683-9.619,5.683c-4.561,0-8.516-4.35-9.619-5.683c-0.036-0.043-0.036-0.106,0-0.149
			c1.103-1.333,5.058-5.683,9.619-5.683c4.562,0,8.516,4.35,9.619,5.683C29.641,19.95,29.71,20.021,29.645,20.099z"/>
		<path fill="#29ABE2" d="M20.026,15.283c-2.615,0-4.742,2.127-4.742,4.742c0,2.615,2.127,4.742,4.742,4.742
			c2.615,0,4.742-2.127,4.742-4.742C24.768,17.41,22.641,15.283,20.026,15.283z M20.026,23.411c-1.867,0-3.387-1.519-3.387-3.387
			c0-1.868,1.519-3.387,3.387-3.387c1.868,0,3.387,1.519,3.387,3.387C23.413,21.892,21.894,23.411,20.026,23.411z"/>
	</g>
</g>
</svg>
