<?xml version="1.0" encoding="utf-8"?>
<!-- Generator: Adobe Illustrator 17.0.0, SVG Export Plug-In . SVG Version: 6.00 Build 0)  -->
<!DOCTYPE svg PUBLIC "-//W3C//DTD SVG 1.1//EN" "http://www.w3.org/Graphics/SVG/1.1/DTD/svg11.dtd">
<svg version="1.1" id="Layer_1" xmlns="http://www.w3.org/2000/svg" xmlns:xlink="http://www.w3.org/1999/xlink" x="0px" y="0px"
	 width="35px" height="35px" viewBox="0 0 35 35" enable-background="new 0 0 35 35" xml:space="preserve">
<g>
	<path fill="#727274" d="M34.769,17.5c0-9.665-7.719-17.5-17.384-17.5S-0.055,7.835-0.055,17.5c0,8.735,6.826,15.975,14.826,17.287
		V23.005h-4v-6h4v-3.361c0-4.386,2.849-6.809,6.846-6.809c1.915,0,4.154,0.342,4.154,0.342v3.827h-2.685
		c-2.174,0-3.315,1.828-3.315,3.212v2.788h5.316l-0.776,6h-4.54v11.782C28.772,33.475,34.769,26.235,34.769,17.5z"/>
	<path fill="#FFFFFF" d="M24.312,23.005l0.776-6h-5.316v-2.788c0-1.384,1.141-3.212,3.315-3.212h2.685V7.178
		c0,0-2.239-0.342-4.154-0.342c-3.997,0-6.846,2.423-6.846,6.809v3.361h-4v6h4v11.782c1,0.14,1.57,0.213,2.5,0.213
		c0.93,0,2.5-0.073,2.5-0.213V23.005H24.312z"/>
</g>
</svg>
