<?xml version="1.0" encoding="utf-8"?>
<!-- Generator: Adobe Illustrator 17.0.0, SVG Export Plug-In . SVG Version: 6.00 Build 0)  -->
<!DOCTYPE svg PUBLIC "-//W3C//DTD SVG 1.1//EN" "http://www.w3.org/Graphics/SVG/1.1/DTD/svg11.dtd">
<svg version="1.1" id="Layer_1" xmlns="http://www.w3.org/2000/svg" xmlns:xlink="http://www.w3.org/1999/xlink" x="0px" y="0px"
	 width="11.1px" height="9.958px" viewBox="0 0 11.1 9.958" enable-background="new 0 0 11.1 9.958" xml:space="preserve">
<path fill="#FE66AB" d="M5.553,9.958c-0.4-0.341-0.788-0.676-1.18-1.005C3.522,8.237,2.685,7.504,1.924,6.69
	C1.294,6.018,0.699,5.319,0.332,4.462C-0.11,3.426-0.152,2.392,0.461,1.403c1.14-1.839,3.811-1.858,4.992-0.046
	C5.48,1.399,5.508,1.442,5.546,1.502c0.032-0.043,0.058-0.075,0.081-0.109C6.281,0.375,7.495-0.17,8.628,0.047
	c1.265,0.242,2.2,1.159,2.422,2.405c0.146,0.816-0.038,1.584-0.418,2.309C10.198,5.588,9.584,6.276,8.94,6.942
	c-0.91,0.941-1.925,1.764-2.916,2.614C5.873,9.686,5.721,9.815,5.553,9.958z"/>
</svg>
