<?xml version="1.0" encoding="utf-8"?>
<!-- Generator: Adobe Illustrator 17.0.0, SVG Export Plug-In . SVG Version: 6.00 Build 0)  -->
<!DOCTYPE svg PUBLIC "-//W3C//DTD SVG 1.1//EN" "http://www.w3.org/Graphics/SVG/1.1/DTD/svg11.dtd">
<svg version="1.1" id="Layer_1" xmlns="http://www.w3.org/2000/svg" xmlns:xlink="http://www.w3.org/1999/xlink" x="0px" y="0px"
	 width="150.203px" height="191.88px" viewBox="0 0 150.203 191.88" enable-background="new 0 0 150.203 191.88"
	 xml:space="preserve">
<g>
	<g>
		<path fill="#F7CE27" d="M93.94,191.32c0,0,15.318-61.632,16.508-63.425c1.19-1.793,2.133-2.709,4.751-2.261
			c0,0-5.241-4.268-2.147-4.94c3.094-0.672,14.041,2.908,15.946-1.126c1.904-4.034,5.235-47.29,5.235-47.29s1.666-3.811-3.333-0.001
			c-4.999,3.81-9.759,5.602-9.759,5.602s-2.38,1.568-1.428-3.138s1.904-10.982,1.904-10.982s1.19-2.689-3.094-0.672
			c-4.285,2.017-11.663,4.258-9.045,0.448c2.618-3.81,13.806-11.109,13.806-11.109s2.142-1.473,7.855-1.473c5.713,0,8.407,0,8.407,0
			s4.208-1.968,4.684,9.013s3.57,69.129,3.808,77.87c0.238,8.74,0.714,21.678,1.19,27.281c0.476,5.603,0.476,24.286,0.476,26.079"/>
		<ellipse cx="129.748" cy="58.546" rx="1.042" ry="1.646"/>
		<ellipse cx="133.008" cy="59.717" rx="1.008" ry="1.677"/>
		<g>
			<path fill="#1A1A1A" d="M149.703,191.88c-0.276,0-0.5-0.224-0.5-0.5c0-3.385-0.022-20.541-0.474-25.854
				c-0.463-5.438-0.942-17.778-1.192-26.943c-0.145-5.298-1.324-28.206-2.364-48.417c-0.675-13.088-1.257-24.392-1.444-28.711
				c-0.277-6.417-1.689-8.342-2.506-8.918c-0.585-0.413-1.05-0.278-1.069-0.271l-0.101,0.031l-0.116-0.009
				c-0.021-0.002-2.25-0.255-7.853-0.255c-5.005,0-7.248,0.447-7.654,0.539c-0.987,0.625-12.111,7.714-14.541,11.249
				c-0.506,0.736-0.484,1.052-0.434,1.112c0.519,0.606,4.579-0.284,8.854-2.296c1.88-0.886,3.029-1.027,3.62-0.452
				c0.564,0.552,0.277,1.443,0.173,1.711c-0.101,0.655-1.005,6.526-1.899,10.946c-0.474,2.341-0.025,2.721,0.027,2.756
				c0.151,0.104,0.513-0.053,0.636-0.135l0.1-0.05c0.047-0.018,4.755-1.815,9.632-5.532c2.152-1.641,3.357-2.117,4.026-1.591
				c0.663,0.521,0.286,1.662,0.102,2.11c-0.208,2.689-3.377,43.362-5.275,47.384c-1.425,3.016-6.935,2.294-11.364,1.715
				c-2.046-0.269-3.982-0.522-4.927-0.315c-0.236,0.052-0.528,0.153-0.574,0.346c-0.165,0.689,1.394,2.467,2.931,3.719l1.477,1.201
				l-1.876-0.32c-2.342-0.404-3.127,0.353-4.252,2.044c-0.897,1.506-10.322,38.663-16.438,63.27
				c-0.066,0.269-0.34,0.428-0.605,0.365c-0.269-0.066-0.432-0.338-0.365-0.605c1.57-6.317,15.373-61.77,16.575-63.582
				c0.955-1.438,1.837-2.509,3.735-2.591c-1.073-1.036-2.424-2.605-2.154-3.732c0.092-0.385,0.398-0.887,1.334-1.09
				c1.12-0.242,3.044,0.009,5.27,0.301c4.107,0.538,9.216,1.208,10.33-1.151c1.476-3.125,4.039-32.185,5.189-47.114l0.04-0.161
				c0.168-0.388,0.271-0.896,0.208-1.028c0.005,0.027-0.551-0.075-2.78,1.624c-4.792,3.654-9.301,5.447-9.838,5.655
				c-0.224,0.134-1.019,0.551-1.694,0.096c-0.729-0.492-0.871-1.694-0.448-3.783c0.938-4.64,1.891-10.895,1.9-10.958l0.037-0.127
				c0.109-0.253,0.145-0.586,0.07-0.659c-0.006-0.004-0.399-0.345-2.495,0.641c-0.084,0.041-8.429,3.939-10.041,2.039
				c-0.45-0.53-0.325-1.312,0.371-2.326c2.646-3.851,14.403-11.26,14.902-11.573l0.137-0.06c0.09-0.024,2.268-0.589,7.98-0.589
				c5.088,0,7.385,0.202,7.872,0.251c0.285-0.065,0.988-0.14,1.789,0.398c1.751,1.179,2.754,4.453,2.983,9.73
				c0.187,4.315,0.769,15.617,1.442,28.703c1.041,20.217,2.222,43.132,2.366,48.442c0.249,9.151,0.728,21.468,1.188,26.887
				c0.454,5.353,0.478,22.545,0.478,25.938C150.203,191.656,149.979,191.88,149.703,191.88z"/>
		</g>
	</g>
	<g>
		<path fill="#FFFFFF" d="M24.075,15.667c0,0,6.895,18.251-12.979,23.93c0,0,12.573,7.706,4.461,21.091
			c0,0,20.279-6.084,22.713,15.007c0,0,17.846-16.629,31.636,2.839c0,0,4.461-21.091,25.146-13.384c0,0-7.706-17.035,4.867-25.146
			c0,0-14.196-5.678-7.706-19.468c0,0-19.063,5.678-21.091-12.573c0,0-15.412,8.517-22.307-5.273
			C48.816,2.688,44.76,24.184,24.075,15.667z"/>
		<path fill="#1A1A1A" d="M70.159,79.754l-0.661-0.933c-4.345-6.134-9.534-9.244-15.423-9.244c-8.409,0-15.394,6.417-15.464,6.482
			l-0.724,0.675l-0.113-0.983c-1.467-12.71-9.478-15.378-15.94-15.378c-3.439,0-6.106,0.786-6.133,0.793l-1.244,0.372l0.672-1.11
			c7.753-12.792-3.8-20.101-4.295-20.405l-0.967-0.595l1.091-0.312c5.915-1.69,9.986-4.677,12.1-8.877
			c3.375-6.705,0.577-14.319,0.548-14.395l-0.405-1.076l1.063,0.438c3.156,1.3,6.104,1.958,8.764,1.958
			c12.387,0,15.268-14.422,15.295-14.567l0.276-1.455l0.663,1.324c2.521,5.042,6.483,7.598,11.778,7.598
			c5.176,0,9.794-2.514,9.84-2.539l0.656-0.362l0.083,0.744c1.19,10.715,8.388,12.964,14.217,12.964c3.45,0,6.206-0.807,6.233-0.815
			l1.07-0.317l-0.476,1.01c-1.849,3.93-2.146,7.55-0.88,10.762c2.173,5.517,8.259,8.005,8.32,8.029l0.899,0.36l-0.813,0.524
			c-5.051,3.258-7.379,8.359-6.921,15.162c0.345,5.123,2.219,9.317,2.237,9.359l0.495,1.094l-1.125-0.419
			c-2.96-1.103-5.751-1.662-8.293-1.662c-12.934,0-16.159,14.534-16.19,14.681L70.159,79.754z M54.075,68.578
			c5.952,0,11.203,2.965,15.62,8.819c1.042-3.463,5.262-14.442,16.89-14.442c2.358,0,4.91,0.456,7.599,1.355
			c-1.398-3.798-5.313-17.018,4.723-24.224c-1.834-0.913-6.196-3.502-8.052-8.212c-1.267-3.214-1.102-6.779,0.487-10.608
			c-1.145,0.252-3.153,0.603-5.505,0.603c-5.004,0-13.522-1.728-15.122-13.142c-1.491,0.715-5.343,2.334-9.674,2.334
			c-5.288,0-9.337-2.356-12.055-7.008c-1.059,3.688-5.021,14.108-15.957,14.108c-2.508,0-5.248-0.553-8.156-1.645
			c0.681,2.385,1.937,8.483-0.917,14.161c-2.123,4.226-6.071,7.284-11.743,9.101c2.665,2.054,10.281,9.199,4.358,20.144
			c1.141-0.243,3.032-0.551,5.262-0.551c12.455,0,15.899,9.209,16.811,15.337C40.68,73.033,46.776,68.578,54.075,68.578z"/>
	</g>
	<g>
		
			<rect x="8.269" y="18.817" transform="matrix(0.7071 0.7071 -0.7071 0.7071 18.0977 -5.0563)" fill="#1A1A1A" width="13.766" height="1"/>
	</g>
	<g>
		
			<rect x="8.424" y="25.915" transform="matrix(0.8872 0.4614 -0.4614 0.8872 13.7819 -3.5436)" fill="#1A1A1A" width="11.429" height="0.999"/>
	</g>
	<g>
		
			<rect x="-0.155" y="29.362" transform="matrix(0.957 0.29 -0.29 0.957 8.9534 -0.6996)" fill="#1A1A1A" width="13.986" height="1"/>
	</g>
	<g>
		
			<rect x="71.359" y="80.061" transform="matrix(0.325 0.9457 -0.9457 0.325 128.9824 -19.5985)" fill="#1A1A1A" width="13.724" height="1"/>
	</g>
	<g>
		
			<rect x="78.561" y="73.977" transform="matrix(0.5145 0.8575 -0.8575 0.5145 104.2976 -35.2629)" fill="#1A1A1A" width="9.46" height="1"/>
	</g>
	<g>
		
			<rect x="84.884" y="72.963" transform="matrix(0.7385 0.6743 -0.6743 0.7385 73.3847 -42.2816)" fill="#1A1A1A" width="12.631" height="1"/>
	</g>
	<g>
		
			<rect x="78.532" y="-0.466" transform="matrix(0.861 0.5086 -0.5086 0.861 13.3836 -39.5401)" fill="#1A1A1A" width="1" height="10.364"/>
	</g>
	<g>
		
			<rect x="82.182" y="5.282" transform="matrix(0.7848 0.6198 -0.6198 0.7848 24.1133 -49.053)" fill="#1A1A1A" width="1.001" height="9.818"/>
	</g>
	<g>
		
			<rect x="90.497" y="5.603" transform="matrix(0.5686 0.8226 -0.8226 0.5686 49.1409 -69.6716)" fill="#1A1A1A" width="1" height="12.826"/>
	</g>
	<g>
		<path d="M32.46,50.21c0.728-2.723,2.598-4.967,4.572-6.941v-1.829c-0.79,1.601-2.391,3.492-3.616,2.536
			c-1.33-1.039,0.166-4.946,2.743-5.445c0.229-0.042,0.457,0.104,0.499,0.332c0.041,0.229-0.104,0.437-0.333,0.478
			c-2.349,0.458-3.346,4.593-1.933,3.99c0.977-0.416,2.349-2.598,2.577-4.447c0.021-0.208,0.208-0.374,0.415-0.353
			c0.229,0,0.396,0.166,0.416,0.395v0.083c0.021,1.185,0.062,2.328,0.062,3.45l2.182-2.058c0.167-0.166,0.416-0.166,0.582,0
			c0.167,0.167,0.146,0.437,0,0.603c-0.894,0.853-1.85,1.705-2.764,2.619c-0.083,2.847-0.499,5.487-2.037,7.897
			c-0.977,1.517-2.016,1.704-2.764,1.372C32.044,52.434,32.169,51.27,32.46,50.21z M35.121,51.062
			c1.247-1.975,1.725-4.115,1.87-6.567c-3.596,3.782-4.468,7.253-3.596,7.627C33.916,52.351,34.539,51.976,35.121,51.062z"/>
		<path d="M40.129,40.296c0.229-0.79,0.686-1.476,1.288-1.995c0.146-0.104,0.354-0.125,0.499-0.021
			c0.79-0.125,1.455,1.018,1.642,1.767c0.52,0.145,1.247,0.187,2.203-0.083c0.229-0.062,0.457,0.083,0.52,0.291
			c0.042,0.229-0.083,0.458-0.312,0.52c-0.831,0.229-1.601,0.271-2.286,0.167c0,0.644-0.188,1.289-0.499,1.85
			C41.771,45.181,39.173,43.456,40.129,40.296z M42.831,40.67c-0.686-0.291-1.143-0.79-1.33-1.268
			c-1.559,1.975-0.312,5.133,0.956,2.951C42.727,41.897,42.893,41.294,42.831,40.67z"/>
		<path d="M52.931,46.282c-0.125-2.577-0.146-6.421,0.249-9.103c-1.205,0.062-2.327,0.25-2.327,0.25
			c-0.208,0-0.374-0.125-0.416-0.333c-0.042-0.229,0.125-0.437,0.354-0.478c0.831-0.146,1.684-0.25,2.535-0.271
			c1.185-6.255,4.385-5.071,4.302-2.702c0,0.229-0.208,0.416-0.437,0.395c-0.229,0-0.395-0.187-0.395-0.416
			c0.062-1.684-1.746-1.642-2.618,2.681c0.831,0,1.662,0.042,2.493,0.146c0.229,0.021,0.396,0.229,0.374,0.458
			c-0.021,0.229-0.229,0.395-0.457,0.374c-0.852-0.104-1.704-0.146-2.556-0.125c-0.437,2.868-0.374,6.983-0.271,9.082
			c0.021,0.229-0.166,0.437-0.395,0.437h-0.021C53.139,46.677,52.952,46.511,52.931,46.282z"/>
		<path d="M55.549,40.296c0.229-0.79,0.686-1.476,1.288-1.995c0.146-0.104,0.354-0.125,0.499-0.021
			c0.79-0.125,1.455,1.018,1.642,1.767c0.52,0.145,1.247,0.187,2.203-0.083c0.229-0.062,0.457,0.083,0.52,0.291
			c0.042,0.229-0.083,0.458-0.312,0.52c-0.831,0.229-1.601,0.271-2.286,0.167c0,0.644-0.188,1.289-0.499,1.85
			C57.191,45.181,54.593,43.456,55.549,40.296z M58.25,40.67c-0.686-0.291-1.143-0.79-1.33-1.268
			c-1.559,1.975-0.312,5.133,0.956,2.951C58.147,41.897,58.313,41.294,58.25,40.67z"/>
		<path d="M60.87,43.331c0.021-1.621,0.249-3.242,0.271-4.821c0-0.229,0.187-0.416,0.415-0.416s0.416,0.187,0.416,0.416
			c0,0.624-0.042,1.268-0.083,1.871c0.686-1.123,2.036-2.598,3.325-2.307c0.229,0.042,0.374,0.27,0.312,0.499
			c-0.042,0.229-0.271,0.353-0.478,0.312c-1.081-0.229-3.222,2.245-3.347,4.468c0,0.208-0.187,0.395-0.415,0.395
			C61.057,43.726,60.87,43.539,60.87,43.331z"/>
		<path d="M70.512,38.572c0.062-0.229,0.291-0.354,0.52-0.312c0.208,0.062,0.354,0.291,0.291,0.52
			c-0.208,0.707-1.227,3.886-0.603,4.261c0.54,0.312,1.829-1.185,2.723-2.848c0.124-0.187,0.374-0.27,0.582-0.166
			c0.187,0.104,0.27,0.374,0.166,0.561c-0.77,1.413-2.494,4.011-3.887,3.18C69.099,43.04,69.993,40.463,70.512,38.572z
			 M71.074,36.577c0.062-0.208,0.124-0.416,0.166-0.603c0.146-0.54,0.956-0.312,0.811,0.208l-0.188,0.624
			c-0.062,0.208-0.291,0.333-0.498,0.27C71.135,37.013,71.011,36.784,71.074,36.577z"/>
		<path d="M73.525,43.622c-0.187-3.741-0.062-7.19,0.354-10.474l-3.657,0.104c-0.229,0-0.416-0.187-0.416-0.416
			c-0.021-0.229,0.166-0.416,0.395-0.416l3.804-0.125c0.146-0.977,0.312-1.933,0.499-2.868c0.062-0.229,0.27-0.374,0.498-0.333
			s0.374,0.27,0.312,0.499c-0.167,0.873-0.333,1.787-0.479,2.702l4.718-0.125c0.249,0,0.437,0.187,0.437,0.416
			c0,0.229-0.188,0.416-0.416,0.416l-4.842,0.125c-0.437,3.263-0.562,6.713-0.374,10.454c0,0.229-0.167,0.437-0.396,0.437h-0.021
			C73.712,44.017,73.525,43.851,73.525,43.622z"/>
	</g>
</g>
</svg>
