<?xml version="1.0" encoding="utf-8"?>
<!-- Generator: Adobe Illustrator 17.0.0, SVG Export Plug-In . SVG Version: 6.00 Build 0)  -->
<!DOCTYPE svg PUBLIC "-//W3C//DTD SVG 1.1//EN" "http://www.w3.org/Graphics/SVG/1.1/DTD/svg11.dtd">
<svg version="1.1" id="Layer_1" xmlns="http://www.w3.org/2000/svg" xmlns:xlink="http://www.w3.org/1999/xlink" x="0px" y="0px"
	 width="35px" height="35px" viewBox="0 0 35 35" enable-background="new 0 0 35 35" xml:space="preserve">
<g>
	<circle fill="#727274" cx="17.5" cy="17.5" r="17.5"/>
	<g>
		<g>
			<path fill="#FEFEFE" d="M18.854,15.113c0.287-0.323,0.524-0.651,0.819-0.929c0.907-0.855,1.981-1.287,3.234-1.276
				c0.689,0.006,1.37,0.056,2.034,0.248c1.519,0.439,2.402,1.485,2.823,2.969c0.316,1.113,0.374,2.255,0.376,3.401
				c0.004,2.417-0.007,4.835-0.002,7.252c0,0.226-0.063,0.286-0.286,0.284c-1.245-0.01-2.491-0.011-3.736,0
				c-0.219,0.002-0.266-0.066-0.266-0.273c0.007-2.3,0.009-4.601,0.001-6.901c-0.002-0.576-0.039-1.153-0.2-1.713
				c-0.298-1.032-1.037-1.558-2.119-1.501c-1.477,0.078-2.245,0.809-2.433,2.311c-0.045,0.359-0.066,0.717-0.066,1.079
				c0.002,2.237-0.002,4.474,0.006,6.711c0.001,0.223-0.055,0.289-0.283,0.287c-1.254-0.011-2.509-0.01-3.763-0.001
				c-0.201,0.001-0.259-0.053-0.259-0.256c0.006-4.429,0.006-8.858,0-13.287c0-0.219,0.072-0.27,0.279-0.268
				c1.191,0.009,2.383,0.01,3.574-0.001c0.219-0.002,0.276,0.069,0.271,0.277C18.846,14.053,18.854,14.583,18.854,15.113z"/>
			<path fill="#FEFEFE" d="M12.03,20.174c0,2.191-0.004,4.382,0.005,6.573c0.001,0.244-0.06,0.317-0.312,0.314
				c-1.245-0.014-2.49-0.011-3.735-0.002c-0.2,0.001-0.26-0.048-0.259-0.255c0.006-4.436,0.006-8.873,0.001-13.309
				c0-0.184,0.044-0.249,0.239-0.248c1.263,0.008,2.526,0.011,3.789-0.002c0.243-0.002,0.276,0.092,0.275,0.3
				C12.028,15.756,12.03,17.965,12.03,20.174z"/>
			<path fill="#FEFEFE" d="M12.374,8.852c0.001,1.376-1.115,2.496-2.488,2.497c-1.355,0-2.481-1.121-2.485-2.475
				C7.396,7.504,8.521,6.377,9.891,6.378C11.251,6.379,12.372,7.496,12.374,8.852z"/>
		</g>
	</g>
</g>
</svg>
