<?xml version="1.0" encoding="utf-8"?>
<!-- Generator: Adobe Illustrator 17.0.0, SVG Export Plug-In . SVG Version: 6.00 Build 0)  -->
<!DOCTYPE svg PUBLIC "-//W3C//DTD SVG 1.1//EN" "http://www.w3.org/Graphics/SVG/1.1/DTD/svg11.dtd">
<svg version="1.1" id="Layer_1" xmlns="http://www.w3.org/2000/svg" xmlns:xlink="http://www.w3.org/1999/xlink" x="0px" y="0px"
	 width="104.756px" height="22.37px" viewBox="0 0 104.756 22.37" enable-background="new 0 0 104.756 22.37" xml:space="preserve">
<g>
	<path fill="#A0A0A2" d="M-0.351-0.31h11c0,4,0,7,0,11c-4,0-7,0-11,0V-0.31L-0.351-0.31z"/>
	<path fill="#A0A0A2" d="M11.728-0.31H22.37c0,4,0.001,7-0.001,11c-3.547,0-7.094,0-10.64,0C11.728,6.69,11.728,3.69,11.728-0.31
		L11.728-0.31z"/>
	<path fill="#A0A0A2" d="M95.964,4.055c0.981-0.639,2.249-0.698,3.354-0.394c0.01,0.657,0.001,1.315,0.004,1.972
		c-0.525-0.231-1.143-0.382-1.696-0.155c-0.438,0.174-0.699,0.624-0.768,1.074c-0.082,0.571-0.029,1.149-0.043,1.723
		c1.122,0.003,2.245,0.001,3.367,0.001c0.008-0.729-0.009-1.458,0.01-2.187c0.763-0.217,1.518-0.461,2.277-0.69
		c0.006,0.96-0.062,1.921-0.045,2.881c0.759-0.011,1.224-0.003,2.224-0.005v1.869c-1-0.031-1.471-0.008-2.233-0.011
		c0.003,1.074,0.027,2.149,0.028,3.224c0.012,0.595-0.019,1.193,0.051,1.786c0.042,0.35,0.123,0.737,0.451,0.918
		c0.549,0.307,1.704,0.173,1.704-0.164v1.887c-1,0.286-1.34,0.373-2.051,0.322c-0.675-0.05-1.348-0.295-1.788-0.832
		c-0.509-0.607-0.626-1.428-0.637-2.196c-0.006-1.649,0.007-3.298,0.004-4.948c-1.123-0.001-2.243-0.104-3.365-0.102
		c-0.001,2.588,0.003,5.661,0.003,7.661c-0.767,0-1.535,0-2.302,0c0-2-0.003-5.071,0.001-7.658c-0.534-0.01-1.068,0.054-1.602,0.043
		c0.002-0.614,0.004-1.203-0.001-1.818c0.531-0.012,1.063,0.006,1.595,0.01c0.039-0.817-0.086-1.651,0.159-2.447
		C94.872,5.102,95.331,4.46,95.964,4.055L95.964,4.055z"/>
	<path fill="#A0A0A2" d="M46.687,4.189c0.464-0.07,0.966,0.088,1.274,0.451c0.36,0.398,0.427,1.03,0.16,1.495
		c-0.295,0.524-0.956,0.768-1.532,0.642c-0.598-0.107-1.095-0.663-1.069-1.282C45.503,4.843,46.048,4.262,46.687,4.189L46.687,4.189
		z"/>
	<path fill="#A0A0A2" d="M29.049,4.69c1.116,0,2.231,0,3.347,0c1.042,2,2.091,5.18,3.134,7.826c0.267,0.662,0.516,1.277,0.795,1.933
		c1.34-3.306,2.7-6.63,4.03-9.94c1.073-0.017,2.147-0.017,3.221-0.02c-0.003,4.473-0.001,8.94-0.001,13.413
		c-0.775-0.002-1.549,0.003-2.323-0.008c0.008-3.301-0.001-6.604,0.004-9.906c0.001-0.148-0.004-0.297-0.014-0.446
		c-0.045,0.069-0.086,0.14-0.121,0.214c-1.33,3.379-2.686,6.749-4.008,10.131c-0.551,0.02-1.103,0.001-1.654,0.01
		c-1.372-3.379-2.727-6.766-4.092-10.148c-0.036-0.07-0.074-0.139-0.116-0.205c-0.028,1.446-0.004,2.894-0.012,4.34
		c0.001,2.003-0.001,4.006,0.001,6.009c-0.731,0.002-1.461,0.108-2.191,0.109C29.048,13.53,29.048,8.69,29.049,4.69L29.049,4.69z"/>
	<path fill="#A0A0A2" d="M53.021,8.267c1.111-0.316,2.309-0.304,3.419,0.01c0.229,0.064,0.451,0.153,0.656,0.274
		c-0.013,0.733,0,1.467-0.007,2.201c-0.742-0.567-1.683-0.926-2.627-0.807c-0.749,0.068-1.464,0.456-1.912,1.062
		c-0.576,0.75-0.709,1.747-0.61,2.665c0.074,0.718,0.371,1.436,0.93,1.912c0.58,0.516,1.394,0.699,2.153,0.641
		c0.75-0.086,1.459-0.404,2.065-0.848c0.006,0.695-0.003,1.389,0.005,2.084c-0.941,0.56-2.069,0.704-3.146,0.651
		c-1.102-0.058-2.201-0.476-2.998-1.25c-0.867-0.835-1.337-2.027-1.393-3.22c-0.056-1.241,0.196-2.535,0.91-3.571
		C51.066,9.187,52.002,8.561,53.021,8.267L53.021,8.267z"/>
	<path fill="#A0A0A2" d="M78.162,8.121c1.064-0.187,2.178-0.05,3.185,0.332c0.001,0.706,0,1.411,0.001,2.116
		c-0.704-0.484-1.563-0.744-2.417-0.714c-0.43,0.017-0.903,0.199-1.099,0.608c-0.156,0.405-0.048,0.935,0.334,1.177
		c0.653,0.437,1.431,0.622,2.107,1.013c0.532,0.299,1.049,0.69,1.319,1.254c0.507,1.056,0.292,2.451-0.599,3.239
		c-0.851,0.795-2.076,1.015-3.203,0.973c-0.8-0.052-1.604-0.21-2.34-0.537c0.003-0.742-0.004-1.483,0.004-2.225
		c0.619,0.449,1.333,0.771,2.088,0.901c0.526,0.086,1.098,0.089,1.588-0.146c0.469-0.233,0.553-0.9,0.275-1.308
		c-0.261-0.314-0.644-0.488-1.005-0.658c-0.678-0.305-1.391-0.56-1.986-1.017c-0.419-0.327-0.736-0.787-0.86-1.306
		c-0.184-0.765-0.127-1.627,0.318-2.296C76.38,8.749,77.263,8.281,78.162,8.121L78.162,8.121z"/>
	<path fill="#A0A0A2" d="M62.243,8.424c0.635-0.382,1.443-0.414,2.136-0.18c-0.003,0.768,0,1.535-0.002,2.303
		c-0.454-0.294-1.02-0.42-1.556-0.366c-0.653,0.074-1.373,0.576-1.642,1.151c-0.291,0.609-0.53,1.298-0.53,1.964
		c0,1.533,0,3.394,0,4.394c0,0-1.108,0-1.864,0c-0.002-3,0.003-6.307-0.002-9.512c0.757-0.01,1.515,0.046,2.272,0.05
		c-0.003,0.55,0,1.126-0.002,1.677C61.3,9.306,61.666,8.751,62.243,8.424L62.243,8.424z"/>
	<path fill="#A0A0A2" d="M45.729,8.176c0.763-0.003,1.527-0.062,2.29-0.048c-0.009,3.204-0.001,6.561-0.004,9.561
		c-0.762,0-1.524,0-2.285,0C45.729,14.69,45.731,11.382,45.729,8.176L45.729,8.176z"/>
	<path fill="#A0A0A2" d="M73.919,10.522c-0.399-0.888-1.12-1.63-2.01-2.032c-1.025-0.467-2.19-0.529-3.295-0.389
		c-1.16,0.146-2.289,0.692-3.026,1.617c-0.672,0.826-1,1.887-1.062,2.939c-0.093,1.241,0.114,2.557,0.843,3.593
		c0.621,0.894,1.6,1.508,2.659,1.734c0.885,0.186,1.81,0.187,2.695,0.003c1.035-0.213,2.001-0.785,2.642-1.63
		c0.626-0.796,0.941-1.799,1.012-2.801C74.449,12.53,74.346,11.468,73.919,10.522z M71.696,14.937
		c-0.22,0.495-0.623,0.913-1.131,1.111c-0.594,0.228-1.262,0.242-1.876,0.082c-0.624-0.164-1.154-0.616-1.443-1.19
		c-0.371-0.74-0.426-1.596-0.35-2.408c0.07-0.738,0.327-1.498,0.889-2.007c0.408-0.381,0.964-0.567,1.514-0.598
		c0.692-0.045,1.428,0.15,1.925,0.653c0.532,0.523,0.738,1.281,0.794,2.005C72.061,13.379,72.029,14.204,71.696,14.937z"/>
	<path fill="#A0A0A2" d="M92.352,10.8c-0.354-0.955-1.063-1.781-1.977-2.238c-1.048-0.529-2.268-0.607-3.416-0.464
		c-0.926,0.119-1.836,0.47-2.543,1.091c-0.863,0.743-1.369,1.836-1.518,2.954c-0.142,1.118-0.094,2.295,0.362,3.341
		c0.437,1.026,1.3,1.86,2.338,2.268c1.025,0.403,2.163,0.449,3.242,0.274c1.103-0.182,2.147-0.762,2.829-1.654
		c0.729-0.922,1.043-2.114,1.041-3.276C92.726,12.319,92.628,11.531,92.352,10.8z M90.276,14.061
		c-0.088,0.506-0.263,1.011-0.595,1.412c-0.334,0.403-0.832,0.648-1.345,0.724c-0.551,0.082-1.131,0.043-1.646-0.179
		c-0.556-0.235-0.987-0.716-1.214-1.27c-0.273-0.66-0.327-1.39-0.273-2.096c0.052-0.683,0.246-1.384,0.697-1.916
		c0.412-0.496,1.043-0.77,1.68-0.806c0.65-0.045,1.344,0.105,1.844,0.544c0.461,0.382,0.716,0.955,0.833,1.531
		C90.388,12.682,90.387,13.382,90.276,14.061z"/>
	<path fill="#A0A0A2" d="M-0.351,11.728c0,0.001,7-0.001,11,0.001c0,3.547,0,6.961,0,10.961h-11V11.728L-0.351,11.728z"/>
	<path fill="#A0A0A2" d="M11.869,11.889c3.547-0.001,6.781-0.161,10.781-0.161c0,3.547,0,6.962,0,10.962H11.728
		C11.729,18.69,11.867,15.436,11.869,11.889L11.869,11.889z"/>
</g>
</svg>
