<?xml version="1.0" encoding="utf-8"?>
<!-- Generator: Adobe Illustrator 17.0.0, SVG Export Plug-In . SVG Version: 6.00 Build 0)  -->
<!DOCTYPE svg PUBLIC "-//W3C//DTD SVG 1.1//EN" "http://www.w3.org/Graphics/SVG/1.1/DTD/svg11.dtd">
<svg version="1.1" id="Layer_1" xmlns="http://www.w3.org/2000/svg" xmlns:xlink="http://www.w3.org/1999/xlink" x="0px" y="0px"
	 width="30.577px" height="29.895px" viewBox="0 0 30.577 29.895" enable-background="new 0 0 30.577 29.895" xml:space="preserve">
<g>
	<g>
		<g>
			<path fill="#33ADFB" d="M20.449,20.449h-8.608c-0.109,0-1.075-0.02-1.399-0.73c-0.351-0.77,0.373-1.602,0.611-1.875
				c0.002-0.002,0.003-0.004,0.005-0.006l0.502-0.56l-3.42-8.178L5.779,8.864c-0.307-0.031-0.531-0.304-0.5-0.611
				c0.031-0.307,0.304-0.532,0.611-0.5l2.693,0.269c0.204,0.02,0.381,0.151,0.46,0.34l3.684,8.811
				c0.083,0.199,0.045,0.428-0.099,0.588l-0.735,0.82c-0.343,0.394-0.411,0.601-0.424,0.671c0.077,0.044,0.258,0.081,0.372,0.081
				h8.608c0.308,0,0.559,0.25,0.559,0.559C21.008,20.199,20.758,20.449,20.449,20.449z"/>
		</g>
		<g>
			<path fill="#33ADFB" d="M12.211,17.946c-0.283,0-0.525-0.214-0.555-0.501c-0.032-0.307,0.191-0.581,0.498-0.613l7.579-0.783
				l0.563-4.381l-10.813-0.36c-0.308-0.01-0.55-0.269-0.54-0.577c0.01-0.308,0.268-0.552,0.577-0.54l11.426,0.381
				c0.157,0.005,0.305,0.077,0.407,0.196c0.102,0.12,0.149,0.277,0.129,0.433l-0.698,5.429c-0.033,0.257-0.239,0.458-0.497,0.484
				l-8.019,0.829C12.25,17.945,12.231,17.946,12.211,17.946z"/>
		</g>
		<g>
			<path fill="#33ADFB" d="M19.255,24.161c-0.924,0-1.676-0.752-1.676-1.676c0-0.924,0.752-1.676,1.676-1.676
				c0.924,0,1.676,0.752,1.676,1.676C20.931,23.409,20.179,24.161,19.255,24.161z M19.255,21.927c-0.308,0-0.559,0.251-0.559,0.559
				c0,0.308,0.251,0.559,0.559,0.559c0.308,0,0.559-0.251,0.559-0.559C19.814,22.177,19.563,21.927,19.255,21.927z"/>
		</g>
		<g>
			<path fill="#33ADFB" d="M12.064,24.161c-0.924,0-1.676-0.752-1.676-1.676c0-0.924,0.752-1.676,1.676-1.676
				c0.924,0,1.676,0.752,1.676,1.676C13.74,23.409,12.988,24.161,12.064,24.161z M12.064,21.927c-0.308,0-0.559,0.251-0.559,0.559
				c0,0.308,0.251,0.559,0.559,0.559c0.308,0,0.559-0.251,0.559-0.559C12.622,22.177,12.372,21.927,12.064,21.927z"/>
		</g>
	</g>
	<g>
		<g>
			<path fill="none" stroke="#33ADFB" stroke-miterlimit="10" d="M30.077,25.756c0,2.001-1.638,3.639-3.639,3.639H4.139
				c-2.001,0-3.639-1.638-3.639-3.639V4.139C0.5,2.138,2.138,0.5,4.139,0.5h22.299c2.001,0,3.639,1.638,3.639,3.639V25.756z"/>
		</g>
	</g>
</g>
</svg>
