<?xml version="1.0" encoding="utf-8"?>
<!-- Generator: Adobe Illustrator 17.0.0, SVG Export Plug-In . SVG Version: 6.00 Build 0)  -->
<!DOCTYPE svg PUBLIC "-//W3C//DTD SVG 1.1//EN" "http://www.w3.org/Graphics/SVG/1.1/DTD/svg11.dtd">
<svg version="1.1" id="Layer_1" xmlns="http://www.w3.org/2000/svg" xmlns:xlink="http://www.w3.org/1999/xlink" x="0px" y="0px"
	 width="276px" height="276px" viewBox="0 0 276 276" enable-background="new 0 0 276 276" xml:space="preserve">
<g>
	<g>
		<path fill="#33ADFB" d="M125,121c0,2.209-1.791,4-4,4H4c-2.209,0-4-1.791-4-4V4c0-2.209,1.791-4,4-4h117c2.209,0,4,1.791,4,4V121z
			"/>
	</g>
	<g>
		<path fill="#FFFFFF" d="M29,104V92h1v5h7v-5h1v12h-1v-6h-7v6H29z"/>
		<path fill="#FFFFFF" d="M44.233,104.42c-0.575,0-1.099-0.112-1.574-0.338c-0.476-0.225-0.854-0.552-1.134-0.979
			c-0.281-0.428-0.422-0.947-0.422-1.559c0-0.471,0.089-0.867,0.267-1.19c0.178-0.322,0.43-0.586,0.756-0.793
			c0.326-0.206,0.713-0.37,1.159-0.489c0.446-0.12,0.938-0.213,1.475-0.279c0.533-0.066,0.984-0.124,1.354-0.174
			c0.37-0.049,0.526-0.128,0.72-0.235S47,98.102,47,97.862v-0.224c0-0.648-0.068-1.159-0.454-1.533s-0.879-0.562-1.601-0.562
			c-0.686,0-1.214,0.151-1.645,0.453c-0.432,0.301-0.719,0.656-0.893,1.065l-1.04-0.378c0.215-0.521,0.516-0.937,0.897-1.249
			c0.38-0.312,0.808-0.537,1.279-0.676c0.471-0.138,0.949-0.207,1.433-0.207c0.364,0,0.743,0.047,1.138,0.143
			c0.395,0.095,0.761,0.259,1.1,0.492s0.436,0.558,0.647,0.974C48.072,96.576,48,97.102,48,97.738V104h-1v-1h0.183
			c-0.132,0-0.329,0.402-0.589,0.666c-0.26,0.265-0.586,0.406-0.979,0.576C45.222,104.411,44.761,104.42,44.233,104.42z
			 M44.381,103.41c0.586,0,1.095-0.131,1.524-0.391c0.43-0.261,0.636-0.606,0.87-1.038c0.233-0.433,0.225-0.908,0.225-1.429v-1.376
			c0,0.078-0.095,0.148-0.287,0.21c-0.192,0.062-0.351,0.117-0.601,0.165c-0.25,0.047-0.467,0.087-0.715,0.12
			s-0.455,0.062-0.654,0.087c-0.537,0.066-0.988,0.17-1.368,0.311c-0.38,0.14-0.668,0.333-0.87,0.579
			c-0.203,0.246-0.302,0.561-0.302,0.945c0,0.578,0.208,1.025,0.621,1.342S43.757,103.41,44.381,103.41z"/>
		<path fill="#FFFFFF" d="M51,104v-9h1v1h0.457c0.19,0,0.507-0.806,0.952-1.089c0.444-0.283,0.978-0.388,1.602-0.388
			c0.657,0,1.197,0.028,1.621,0.336C57.055,95.166,57.373,96,57.583,96h0.081c0.215,0,0.565-0.805,1.051-1.118
			c0.485-0.312,1.075-0.396,1.77-0.396c0.884,0,1.409,0.314,1.921,0.87C62.918,95.912,63,96.759,63,97.825V104h-1v-6.175
			c0-0.752-0.07-1.316-0.454-1.692s-0.83-0.563-1.457-0.563c-0.728,0-1.198,0.223-1.59,0.669C58.106,96.685,58,97.251,58,97.937V104
			h-1v-6.274c0-0.645-0.303-1.165-0.663-1.562s-0.928-0.595-1.58-0.595c-0.438,0-0.862,0.107-1.212,0.322
			c-0.35,0.215-0.834,0.513-1.035,0.896c-0.2,0.382-0.51,0.821-0.51,1.317V104H51z"/>
		<path fill="#FFFFFF" d="M66,104v-9h1v1h0.432c0.19,0,0.507-0.806,0.952-1.089c0.444-0.283,0.978-0.388,1.602-0.388
			c0.657,0,1.197,0.028,1.621,0.336C72.03,95.166,72.347,96,72.558,96h0.081c0.215,0,0.565-0.805,1.051-1.118
			c0.485-0.312,1.075-0.396,1.77-0.396c0.884,0,1.421,0.314,1.934,0.87C77.905,95.912,78,96.759,78,97.825V104h-1v-6.175
			c0-0.752-0.082-1.316-0.467-1.692s-0.836-0.563-1.464-0.563c-0.728,0-1.188,0.223-1.58,0.669C73.096,96.685,73,97.251,73,97.937
			V104h-1v-6.274c0-0.645-0.316-1.165-0.675-1.562s-0.934-0.595-1.587-0.595c-0.438,0-0.866,0.107-1.215,0.322
			c-0.35,0.215-0.823,0.513-1.024,0.896C67.299,97.169,67,97.608,67,98.104V104H66z"/>
		<path fill="#FFFFFF" d="M85.085,104.401c-0.888,0-1.657-0.208-2.306-0.623c-0.649-0.415-1.15-0.991-1.503-1.729
			c-0.354-0.737-0.53-1.587-0.53-2.55c0-0.959,0.177-1.812,0.53-2.558c0.353-0.745,0.843-1.33,1.469-1.754
			c0.626-0.423,1.35-0.635,2.172-0.635c0.517,0,1.015,0.094,1.494,0.281c0.479,0.188,0.91,0.476,1.292,0.862
			c0.382,0.386,0.712,0.872,0.935,1.456C88.861,97.737,89,98.429,89,99.226V100h-7v-1h5.818c0-1-0.123-1.263-0.369-1.752
			c-0.246-0.49-0.587-0.927-1.023-1.213s-0.939-0.453-1.509-0.453c-0.603,0-1.134,0.148-1.593,0.471s-0.745,0.742-1.003,1.27
			C82.063,97.852,82,98.424,82,99.053v0.582c0,0.757,0.059,1.417,0.321,1.98c0.262,0.564,0.599,1.001,1.083,1.312
			c0.483,0.31,1.038,0.465,1.699,0.465c0.45,0,0.837-0.07,1.178-0.211s0.623-0.33,0.857-0.567c0.233-0.237,0.407-0.499,0.528-0.784
			l1.046,0.341c-0.145,0.401-0.382,0.771-0.71,1.109c-0.329,0.339-0.738,0.61-1.228,0.815
			C86.284,104.299,85.721,104.401,85.085,104.401z"/>
		<path fill="#FFFFFF" d="M91,104v-9h1v1h0.522c0.19,0,0.521-0.794,0.995-1.089c0.473-0.296,1.009-0.407,1.608-0.407
			c0.091,0,0.338,0.02,0.45,0.024C95.687,94.533,96,94.555,96,94.559v1.122c0-0.009-0.282-0.021-0.406-0.037
			s-0.331-0.025-0.476-0.025c-0.496,0-0.973,0.104-1.36,0.313c-0.387,0.209-0.946,0.497-1.169,0.864
			C92.366,97.164,92,97.583,92,98.055V104H91z"/>
	</g>
	<path fill="#FFFFFF" d="M88.594,45.551l-4.435-4.331c-0.208-0.204-0.49-0.22-0.785-0.22H82v-1.316c0-0.295,0.018-0.577-0.191-0.785
		l-8.803-8.87c-1.781-1.778-4.725-4.759-10.73-4.759c-6.003,0-8.738,2.75-10.747,4.759c-0.315,0.317-0.402,0.796-0.231,1.211
		c0.171,0.412,0.581,0.683,1.029,0.683c8.943,0,9.981,3.796,9.981,6.652c0,3.45-2.871,5.756-2.902,5.779
		c-0.018,0.015-0.026,0.038-0.044,0.053c-0.018,0.015-0.037,0.02-0.053,0.035L37.375,66.373c-1.08,1.08-1.676,2.519-1.676,4.175
		c0,3.155,2.566,5.721,5.721,5.721c1.608,0,3.151-0.683,4.235-1.871L66.184,51.6C69.173,49.376,72,48.021,73,48.112v1.55
		c0,0.295,0.315,0.577,0.522,0.785l5.643,5.386C79.373,56.038,79.753,56,80.048,56c0.013,0,0.024,0,0.038,0
		c0.306,0,0.594,0.011,0.796-0.22l7.761-8.791C89.029,46.548,89.009,45.966,88.594,45.551z M44.012,72.905
		c-0.663,0.732-1.608,1.149-2.592,1.149c-1.931,0-3.504-1.574-3.504-3.637c0-0.936,0.364-1.816,1.027-2.477l21.148-21.148
		l4.014,4.014L44.012,72.905z M80.188,53.583L76,49.201v-1.756c0-0.295-0.311-0.577-0.517-0.785
		c-2.093-2.093-7.004,0.792-9.636,2.656l-4.115-4.067c1.113-1.177,2.819-3.517,2.819-6.674c0-5.191-3.203-8.125-9.509-8.746
		c1.619-1.291,3.744-2.342,7.274-2.342c5.087,0,7.53,2.472,9.166,4.109L80,40.14v1.761C80,42.513,80.545,43,81.157,43h1.758
		l3.474,3.382L80.188,53.583z"/>
	<g>
		<path fill="#FF2222" d="M276,121c0,2.209-1.791,4-4,4H155c-2.209,0-4-1.791-4-4V4c0-2.209,1.791-4,4-4h117c2.209,0,4,1.791,4,4
			V121z"/>
	</g>
	<g>
		<path fill="#FFFFFF" d="M190,103V90h4.461c0.9,0,1.654,0.304,2.26,0.649c0.604,0.346,1.061,0.879,1.369,1.47
			c0.308,0.591,0.462,1.289,0.462,2.029c0,0.739-0.153,1.422-0.459,2.015c-0.306,0.593-0.761,1.018-1.363,1.363
			c-0.604,0.346-1.354,0.474-2.25,0.474H191v-1h3.449c0.665,0,1.217-0.094,1.655-0.344c0.438-0.25,0.766-0.576,0.982-1.01
			c0.217-0.435,0.325-0.92,0.325-1.474s-0.108-1.044-0.325-1.478c-0.217-0.435-0.546-0.926-0.986-1.174
			c-0.439-0.247-0.996-0.521-1.67-0.521H192v12H190z"/>
		<path fill="#FFFFFF" d="M204.799,103.155c-0.888,0-1.656-0.208-2.305-0.623c-0.649-0.415-1.15-0.991-1.504-1.729
			c-0.354-0.737-0.529-1.587-0.529-2.55c0-0.959,0.176-1.812,0.529-2.558c0.354-0.745,0.844-1.33,1.469-1.754
			c0.627-0.423,1.351-0.635,2.173-0.635c0.517,0,1.015,0.094,1.494,0.281c0.479,0.188,0.91,0.476,1.292,0.862
			c0.383,0.386,0.855,0.872,1.077,1.456c0.223,0.585,0.504,1.276,0.504,2.073V99h-8v-1h6.534c0-1-0.123-1.386-0.369-1.875
			c-0.246-0.49-0.587-0.989-1.023-1.274c-0.436-0.285-0.938-0.484-1.509-0.484c-0.603,0-1.134,0.133-1.593,0.455
			s-0.603,0.734-0.861,1.262C201.92,96.614,202,97.178,202,97.807v0.582c0,0.757-0.084,1.417,0.179,1.98
			c0.263,0.564,0.528,1.001,1.011,1.312c0.484,0.31,1.003,0.465,1.663,0.465c0.451,0,0.82-0.07,1.161-0.211s0.615-0.33,0.848-0.567
			c0.234-0.237,0.403-0.499,0.524-0.784l1.044,0.341c-0.145,0.401-0.384,0.771-0.712,1.109c-0.329,0.339-0.738,0.61-1.228,0.815
			C205.999,103.053,205.436,103.155,204.799,103.155z"/>
		<path fill="#FFFFFF" d="M212,97.007V103h-1V93h1v2h0.256c0.223-1,0.57-0.915,1.044-1.209c0.474-0.296,1.06-0.461,1.757-0.461
			c0.641,0,1.204,0.124,1.689,0.391s0.719,0.654,0.991,1.17c0.27,0.517,0.262,1.147,0.262,1.899V103h-1v-6.142
			c0-0.781-0.127-1.399-0.562-1.854c-0.436-0.455-0.973-0.682-1.705-0.682c-0.5,0-0.921,0.107-1.31,0.322s-0.778,0.523-1.002,0.927
			C212.195,95.975,212,96.453,212,97.007z"/>
		<path fill="#FFFFFF" d="M224.919,103.155c-0.852,0-1.593-0.213-2.222-0.639c-0.631-0.425-1.119-1.008-1.467-1.748
			c-0.347-0.739-0.521-1.582-0.521-2.528c0-0.955,0.177-1.804,0.53-2.548c0.354-0.743,0.844-1.327,1.472-1.751
			c0.628-0.423,1.357-0.635,2.188-0.635c0.637,0,1.213,0.123,1.729,0.368c0.518,0.246,0.943,0.459,1.28,0.904S228.459,96,228.545,96
			h-1.115c-0.116,0-0.395-0.866-0.834-1.248c-0.44-0.382-1-0.508-1.677-0.508c-0.607,0-1.146,0.197-1.612,0.525
			c-0.467,0.329-0.831,0.802-1.094,1.387c-0.262,0.585-0.393,1.27-0.393,2.038c0,0.772,0.127,1.459,0.384,2.053
			c0.256,0.593,0.616,1.059,1.081,1.393c0.465,0.335,1.01,0.504,1.634,0.504c0.421,0,0.807-0.08,1.155-0.239
			c0.35-0.159,0.643-0.475,0.881-0.769c0.237-0.293,0.397-0.137,0.48-1.137h1.115c-0.082,1-0.286,1.175-0.61,1.624
			c-0.325,0.449-0.743,0.846-1.259,1.103C226.168,102.982,225.581,103.155,224.919,103.155z"/>
		<path fill="#FFFFFF" d="M231.49,91.8c-0.228,0-0.422-0.077-0.583-0.232c-0.161-0.154-0.242-0.342-0.242-0.561
			s0.081-0.406,0.242-0.561c0.161-0.155,0.355-0.233,0.583-0.233s0.421,0.078,0.583,0.233c0.16,0.154,0.241,0.342,0.241,0.561
			s-0.081,0.406-0.241,0.561C231.911,91.723,231.717,91.8,231.49,91.8z M231,103V93h1v10H231z"/>
		<path fill="#FFFFFF" d="M236,90v13h-1V90H236z"/>
	</g>
	<g>
		<g>
			<path fill="#FFFFFF" d="M237.126,31.476l-4.621-4.622c-2.112-2.112-5.547-2.111-7.659,0
				c-1.988,1.988-32.354,32.356-34.383,34.386c-0.216,0.216-0.361,0.503-0.413,0.784l-2.311,12.479
				c-0.09,0.484,0.065,0.981,0.413,1.329c0.348,0.348,0.845,0.502,1.329,0.413l12.478-2.311c0.288-0.054,0.572-0.2,0.784-0.413
				l34.383-34.386C239.242,37.018,239.243,33.592,237.126,31.476z M191.073,72.91l1.398-7.549l6.15,6.151L191.073,72.91z
				 M201.686,70.351l-8.054-8.055l29.405-29.407l8.054,8.055L201.686,70.351z M235.013,37.022l-1.809,1.809l-8.054-8.055
				l1.809-1.809c0.946-0.946,2.486-0.947,3.433,0l4.621,4.622C235.962,34.538,235.962,36.073,235.013,37.022z"/>
		</g>
	</g>
	<g>
		<path fill="#09D62B" d="M125,272c0,2.209-1.791,4-4,4H4c-2.209,0-4-1.791-4-4V155c0-2.209,1.791-4,4-4h117c2.209,0,4,1.791,4,4
			V272z"/>
	</g>
	<g>
		<g>
			<path fill="#FFFFFF" d="M21,228h1.672l4.605,11h0.112l4.605-11H33v13h-1v-11h0.143l-4.283,11h-1.054l-4.283-11H22v11h-1V228z"/>
			<path fill="#FFFFFF" d="M40.324,240.704c-0.888,0-1.657-0.208-2.306-0.623c-0.649-0.415-1.15-0.991-1.503-1.729
				c-0.354-0.737-0.53-1.587-0.53-2.55c0-0.959,0.177-1.812,0.53-2.558c0.353-0.745,0.843-1.33,1.469-1.754
				c0.626-0.423,1.35-0.635,2.172-0.635c0.517,0,1.015,0.094,1.494,0.281c0.479,0.188,0.91,0.476,1.292,0.862
				c0.382,0.386,0.592,0.872,0.815,1.456c0.223,0.585,0.242,1.276,0.242,2.073V236h-7v-1h6.058c0-1-0.123-1.112-0.369-1.601
				c-0.246-0.49-0.587-0.852-1.023-1.137s-0.939-0.415-1.509-0.415c-0.603,0-1.134,0.167-1.593,0.49s-0.865,0.751-1.123,1.28
				c-0.258,0.529-0.441,1.111-0.441,1.739v0.582c0,0.757,0.179,1.417,0.441,1.98c0.262,0.564,0.659,1.001,1.142,1.312
				c0.483,0.31,1.068,0.465,1.729,0.465c0.45,0,0.852-0.07,1.193-0.211s0.631-0.33,0.865-0.567c0.233-0.237,0.411-0.499,0.531-0.784
				l1.048,0.341c-0.145,0.401-0.381,0.771-0.709,1.109c-0.329,0.339-0.738,0.61-1.227,0.815
				C41.523,240.602,40.961,240.704,40.324,240.704z"/>
			<path fill="#FFFFFF" d="M49.268,240.723c-0.575,0-1.099-0.112-1.574-0.338c-0.476-0.225-0.854-0.552-1.134-0.979
				c-0.281-0.428-0.422-0.947-0.422-1.559c0-0.471,0.089-0.867,0.267-1.19c0.178-0.322,0.43-0.586,0.756-0.793
				c0.326-0.206,0.713-0.37,1.159-0.489c0.446-0.12,0.938-0.213,1.475-0.279c0.533-0.066,0.984-0.124,1.354-0.174
				c0.37-0.049,0.508-0.128,0.702-0.235S52,234.404,52,234.165v-0.224c0-0.648-0.05-1.159-0.436-1.533s-0.87-0.562-1.592-0.562
				c-0.686,0-1.209,0.151-1.641,0.453c-0.432,0.301-0.716,0.656-0.89,1.065l-1.038-0.378c0.215-0.521,0.517-0.937,0.897-1.249
				c0.38-0.312,0.808-0.537,1.279-0.676c0.471-0.138,0.949-0.207,1.433-0.207c0.364,0,0.743,0.047,1.138,0.143
				c0.395,0.095,0.762,0.259,1.1,0.492s0.419,0.558,0.629,0.974c0.211,0.415,0.121,0.94,0.121,1.577V241h-1v-2h0.218
				c-0.132,0.28-0.329,0.554-0.589,0.817c-0.26,0.265-0.586,0.481-0.979,0.651C50.258,240.638,49.797,240.723,49.268,240.723z
				 M49.417,239.713c0.586,0,1.095-0.131,1.524-0.391c0.43-0.261,0.618-0.606,0.852-1.038c0.233-0.433,0.207-0.908,0.207-1.429
				v-1.376c0,0.078-0.077,0.148-0.269,0.21c-0.192,0.062-0.342,0.117-0.592,0.165c-0.25,0.047-0.463,0.087-0.711,0.12
				s-0.453,0.062-0.652,0.087c-0.537,0.066-0.987,0.17-1.367,0.311c-0.38,0.14-0.667,0.333-0.87,0.579
				c-0.203,0.246-0.301,0.561-0.301,0.945c0,0.578,0.208,1.025,0.621,1.342S48.793,239.713,49.417,239.713z"/>
			<path fill="#FFFFFF" d="M62.718,233.074l-1.01,0.285c-0.099-0.285-0.24-0.543-0.421-0.775c-0.182-0.23-0.418-0.415-0.709-0.551
				c-0.292-0.137-0.652-0.205-1.082-0.205c-0.645,0-1.173,0.153-1.586,0.459c-0.414,0.306-0.62,0.7-0.62,1.184
				c0,0.409,0.142,0.741,0.425,0.995c0.283,0.254,0.72,0.455,1.311,0.604l1.438,0.353c0.797,0.194,1.396,0.503,1.794,0.924
				c0.398,0.422,0.598,0.95,0.598,1.587c0,0.537-0.149,1.015-0.446,1.432c-0.298,0.418-0.712,0.745-1.243,0.982
				c-0.531,0.237-1.146,0.356-1.844,0.356c-0.93,0-1.696-0.21-2.299-0.629c-0.604-0.42-0.99-1.026-1.159-1.819l1.06-0.261
				c0.137,0.566,0.404,0.994,0.803,1.283c0.399,0.29,0.925,0.435,1.578,0.435c0.731,0,1.316-0.165,1.754-0.493
				s0.657-0.74,0.657-1.236c0-0.385-0.128-0.708-0.384-0.971c-0.256-0.262-0.645-0.455-1.166-0.579l-1.556-0.372
				c-0.826-0.198-1.438-0.512-1.834-0.942c-0.397-0.43-0.595-0.962-0.595-1.599c0-0.524,0.143-0.986,0.428-1.386
				c0.285-0.398,0.678-0.711,1.178-0.938s1.07-0.341,1.71-0.341c0.872,0,1.569,0.197,2.092,0.592
				C62.11,231.842,62.487,232.384,62.718,233.074z"/>
			<path fill="#FFFFFF" d="M71,236.867V231h1v10h-1v-2h0.235c-0.223,0-0.577,0.856-1.06,1.181s-1.074,0.468-1.772,0.468
				c-0.607,0-1.147-0.143-1.618-0.409c-0.471-0.267-0.977-0.663-1.245-1.179S65,237.904,65,237.152V231h1v6.084
				c0,0.744,0.407,1.343,0.845,1.795s1.094,0.679,1.78,0.679c0.43,0,0.89-0.104,1.287-0.31c0.396-0.207,0.586-0.51,0.842-0.908
				C71.009,237.94,71,237.45,71,236.867z"/>
			<path fill="#FFFFFF" d="M75,241v-10h1v1h0.49c0.19,0,0.521-0.643,0.995-0.938c0.473-0.296,1.009-0.331,1.608-0.331
				c0.091,0,0.354,0.058,0.466,0.062c0.111,0.005,0.441,0.065,0.441,0.069v1.122c0-0.009-0.298-0.021-0.422-0.037
				s-0.339-0.025-0.484-0.025c-0.496,0-0.977,0.104-1.364,0.313c-0.387,0.209-0.932,0.497-1.155,0.864
				c-0.223,0.368-0.575,0.787-0.575,1.259V241H75z"/>
			<path fill="#FFFFFF" d="M82.137,229.349c-0.228,0-0.422-0.077-0.583-0.232c-0.161-0.154-0.242-0.342-0.242-0.561
				s0.081-0.406,0.242-0.561c0.161-0.155,0.355-0.233,0.583-0.233c0.227,0,0.421,0.078,0.583,0.233
				c0.161,0.154,0.242,0.342,0.242,0.561s-0.081,0.406-0.242,0.561C82.559,229.271,82.364,229.349,82.137,229.349z M82,241v-10h1v10
				H82z"/>
			<path fill="#FFFFFF" d="M87,234.556V241h-1v-10h1v1h-0.221c0.223,0,0.571-0.64,1.044-0.935c0.473-0.296,1.059-0.323,1.757-0.323
				c0.641,0,1.204,0.193,1.689,0.459s0.958,0.688,1.229,1.205S93,233.587,93,234.339V241h-1v-6.593c0-0.781-0.364-1.399-0.8-1.854
				c-0.436-0.455-1.093-0.682-1.824-0.682c-0.5,0-0.981,0.107-1.369,0.322c-0.389,0.215-0.569,0.523-0.795,0.927
				C86.986,233.523,87,234.002,87,234.556z"/>
			<path fill="#FFFFFF" d="M99.356,244.274c-0.649,0-1.217-0.084-1.705-0.251c-0.488-0.167-0.899-0.396-1.233-0.685
				c-0.335-0.29-0.595-0.614-0.781-0.974l0.905-0.595c0.136,0.239,0.319,0.475,0.548,0.706s0.529,0.424,0.899,0.577
				c0.37,0.152,0.825,0.229,1.367,0.229c0.843,0,1.435-0.21,1.955-0.632c0.518-0.422,0.69-1.076,0.69-1.965V239h0.077
				c-0.128,0-0.312,0.348-0.552,0.635c-0.24,0.288-0.553,0.412-0.939,0.601c-0.387,0.19-0.865,0.228-1.435,0.228
				c-0.76,0-1.435-0.216-2.024-0.592s-1.052-0.928-1.388-1.63c-0.337-0.7-0.505-1.543-0.505-2.514c0-0.963,0.165-1.813,0.493-2.545
				c0.329-0.731,0.789-1.304,1.379-1.713s1.279-0.614,2.064-0.614c0.583,0,1.066,0.101,1.45,0.306
				c0.384,0.204,0.693,0.557,0.927,0.858c0.233,0.302,0.417,0.98,0.549,0.98H102v-2h1v9.754c0,0.806-0.029,1.469-0.372,1.989
				c-0.343,0.521-0.738,0.906-1.33,1.156C100.708,244.149,100.108,244.274,99.356,244.274z M99.281,239.396
				c0.611,0,1.134-0.147,1.568-0.443c0.434-0.295,0.767-0.72,0.998-1.273s0.347-1.213,0.347-1.978c0-0.744-0.114-1.404-0.341-1.98
				c-0.228-0.576-0.557-1.031-0.989-1.363c-0.432-0.333-0.96-0.499-1.583-0.499c-0.637,0-1.174,0.172-1.612,0.515
				s-0.769,0.805-0.992,1.385c-0.223,0.581-0.334,1.229-0.334,1.943c0,0.728,0.113,1.369,0.341,1.925
				c0.227,0.556,0.56,0.989,0.998,1.302C98.12,239.24,98.653,239.396,99.281,239.396z"/>
			<path fill="#FFFFFF" d="M43,245v-1h9v1h-4v11h-1v-11H43z"/>
			<path fill="#FFFFFF" d="M56.034,256.681c-0.575,0-1.099-0.112-1.574-0.338c-0.476-0.225-0.854-0.552-1.134-0.979
				c-0.281-0.428-0.422-0.947-0.422-1.559c0-0.471,0.089-0.867,0.267-1.19c0.178-0.322,0.43-0.586,0.756-0.793
				c0.326-0.206,0.713-0.37,1.159-0.489c0.446-0.12,0.938-0.213,1.475-0.279c0.533-0.066,0.984-0.124,1.354-0.174
				c0.37-0.049,0.625-0.128,0.82-0.235S59,250.362,59,250.123v-0.224c0-0.648-0.167-1.159-0.553-1.533s-0.928-0.562-1.651-0.562
				c-0.686,0-1.239,0.151-1.67,0.453c-0.432,0.301-0.731,0.656-0.905,1.065l-1.046-0.378c0.215-0.521,0.513-0.937,0.893-1.249
				c0.38-0.312,0.806-0.537,1.277-0.676c0.471-0.138,0.948-0.207,1.432-0.207c0.364,0,0.743,0.047,1.138,0.143
				c0.395,0.095,0.761,0.259,1.1,0.492s0.536,0.558,0.747,0.974c0.211,0.415,0.238,0.94,0.238,1.577V256h-1v-1h-0.016
				c-0.132,0-0.329,0.533-0.589,0.796c-0.26,0.265-0.586,0.471-0.979,0.641C57.024,256.606,56.563,256.681,56.034,256.681z
				 M56.183,255.671c0.586,0,1.095-0.131,1.524-0.391c0.43-0.261,0.735-0.606,0.969-1.038c0.233-0.433,0.324-0.908,0.324-1.429
				v-1.376c0,0.078-0.194,0.148-0.386,0.21c-0.192,0.062-0.4,0.117-0.65,0.165c-0.25,0.047-0.492,0.087-0.74,0.12
				s-0.468,0.062-0.666,0.087c-0.537,0.066-0.994,0.17-1.374,0.311c-0.38,0.14-0.671,0.333-0.873,0.579
				c-0.203,0.246-0.303,0.561-0.303,0.945c0,0.578,0.207,1.025,0.62,1.342S55.559,255.671,56.183,255.671z"/>
			<path fill="#FFFFFF" d="M63,260v-13h1v2h0.29c0.132-1,0.314-0.698,0.545-0.997c0.231-0.3,0.538-0.613,0.92-0.82
				s0.865-0.34,1.447-0.34c0.785,0,1.472,0.19,2.061,0.601s1.047,0.978,1.376,1.716c0.329,0.737,0.493,1.592,0.493,2.571
				c0,0.983-0.164,1.843-0.493,2.583c-0.329,0.739-0.787,1.314-1.376,1.728c-0.589,0.414-1.272,0.62-2.049,0.62
				c-0.574,0-1.055-0.104-1.441-0.31c-0.386-0.207-0.698-0.311-0.936-0.614S64.418,255,64.29,255H64v5H63z M64.178,251.71
				c0,0.769,0.115,1.449,0.344,2.042c0.229,0.593,0.56,1.058,0.992,1.395c0.432,0.337,0.956,0.506,1.571,0.506
				c0.632,0,1.166-0.175,1.602-0.524c0.436-0.349,0.769-0.821,0.998-1.416s0.344-1.263,0.344-2.002c0-0.731-0.112-1.391-0.337-1.978
				c-0.226-0.587-0.557-1.053-0.995-1.397s-0.975-0.518-1.611-0.518c-0.62,0-1.147,0.166-1.581,0.499
				c-0.434,0.332-0.764,0.791-0.989,1.376S64.178,250.949,64.178,251.71z"/>
			<path fill="#FFFFFF" d="M77.405,256.662c-0.888,0-1.657-0.208-2.306-0.623c-0.649-0.415-1.15-0.991-1.503-1.729
				c-0.354-0.737-0.53-1.587-0.53-2.55c0-0.959,0.177-1.812,0.53-2.558c0.353-0.745,0.843-1.33,1.469-1.754
				c0.626-0.423,1.35-0.635,2.172-0.635c0.517,0,1.015,0.094,1.494,0.281c0.479,0.188,0.91,0.476,1.292,0.862
				c0.382,0.386,0.552,0.872,0.775,1.456c0.223,0.585,0.202,1.276,0.202,2.073V252h-7v-1h6.138c0-1-0.123-1.133-0.369-1.622
				c-0.246-0.49-0.587-0.862-1.023-1.147s-0.939-0.42-1.509-0.42c-0.603,0-1.134,0.165-1.593,0.487s-0.905,0.75-1.163,1.278
				c-0.258,0.529-0.482,1.109-0.482,1.738v0.582c0,0.757,0.219,1.417,0.482,1.98c0.262,0.564,0.679,1.001,1.163,1.312
				c0.483,0.31,1.078,0.465,1.739,0.465c0.45,0,0.857-0.07,1.198-0.211s0.633-0.33,0.867-0.567c0.233-0.237,0.412-0.499,0.533-0.784
				l1.049,0.341c-0.145,0.401-0.381,0.771-0.709,1.109c-0.329,0.339-0.737,0.61-1.227,0.815
				C78.604,256.56,78.041,256.662,77.405,256.662z"/>
		</g>
	</g>
	<g>
		<path fill="#FFFFFF" d="M85.18,179.493c-3.133-3.225-7.417-5.001-11.914-5.001c-3.129,0-6.098,0.876-8.592,2.395
			c-0.048,0.016-11.416,4.946-11.416,4.946C52.664,182.099,52,182.689,52,183.34v6.87c0,0.911,1.258,1.79,2.169,1.79h2.551
			c0.072,1,0.317,4,0.724,5h-22.4c-0.91,0-1.043-0.336-1.043,0.575v10.662c0,0.91,0.59,1.649,1.5,1.649c0.911,0,1.5-0.738,1.5-1.649
			V208h51.023c0.911,0,1.977-1.271,1.977-2.182v-14.376C90,186.955,88.306,182.712,85.18,179.493z M56.875,188H56v-3.589
			l2.777-1.557C57.876,184.513,57.161,187,56.875,188z M37,204v-5h2v0.553c0,0.911,1.089,1.649,2,1.649s2-0.738,2-1.649V199h3v0.553
			c0,0.911,0.589,1.649,1.5,1.649c0.91,0,1.5-0.738,1.5-1.649V199h4v0.553c0,0.911,0.589,1.649,1.5,1.649s1.5-0.738,1.5-1.649V199
			h2.893c0.792,3,1.789,2.655,2.976,3.775c0.455,0.429,0.929,0.225,1.42,1.225H37z M86,191.419v12.75c0,0-12.088-0.032-12.219-0.024
			c-3.674,0.215-7.071-1.054-9.742-3.573c-2.668-2.517-4.09-5.923-4.09-9.593c0-7.273,5.94-13.19,13.213-13.19
			c3.598,0,6.784,1.421,9.291,4.001c2.506,2.58,3.548,5.982,3.548,9.58C86,191.387,86,191.403,86,191.419z"/>
		<path fill="#FFFFFF" d="M73.439,183.945c-3.979,0-7.216,3.237-7.216,7.216c0,3.979,3.237,7.216,7.216,7.216
			c3.979,0,7.216-3.237,7.216-7.216C80.655,187.182,77.418,183.945,73.439,183.945z M73.439,195.08
			c-2.161,0-3.918-1.758-3.918-3.919c0-2.161,1.758-3.919,3.918-3.919c2.161,0,3.919,1.758,3.919,3.919
			C77.357,193.322,75.599,195.08,73.439,195.08z"/>
	</g>
	<g>
		<path fill="#7030FF" d="M276,272c0,2.209-1.791,4-4,4H155c-2.209,0-4-1.791-4-4V155c0-2.209,1.791-4,4-4h117c2.209,0,4,1.791,4,4
			V272z"/>
	</g>
	<g>
		<path fill="#FFFFFF" d="M193,228v13h-0.686l-7.5-11H185v11h-1v-13h0.678l7.524,10H192v-10H193z"/>
		<path fill="#FFFFFF" d="M199.243,240.723c-0.575,0-1.099-0.112-1.574-0.338c-0.476-0.225-0.854-0.552-1.134-0.979
			c-0.281-0.428-0.422-0.947-0.422-1.559c0-0.471,0.088-0.867,0.266-1.19c0.178-0.322,0.43-0.586,0.757-0.793
			c0.326-0.206,0.713-0.37,1.159-0.489c0.446-0.12,0.938-0.213,1.475-0.279c0.533-0.066,0.984-0.124,1.355-0.174
			c0.369-0.049,0.52-0.128,0.715-0.235c0.193-0.107,0.16-0.281,0.16-0.521v-0.224c0-0.648-0.062-1.159-0.449-1.533
			c-0.386-0.374-0.876-0.562-1.599-0.562c-0.686,0-1.211,0.151-1.643,0.453c-0.433,0.301-0.718,0.656-0.892,1.065l-1.04-0.378
			c0.215-0.521,0.517-0.937,0.897-1.249c0.38-0.312,0.808-0.537,1.278-0.676c0.472-0.138,0.95-0.207,1.433-0.207
			c0.364,0,0.744,0.047,1.139,0.143c0.395,0.095,0.761,0.259,1.1,0.492s0.431,0.558,0.642,0.974c0.211,0.415,0.134,0.94,0.134,1.577
			V241h-1v-2h0.193c-0.133,0.28-0.328,0.554-0.589,0.817c-0.261,0.265-0.587,0.481-0.979,0.651
			C200.232,240.638,199.772,240.723,199.243,240.723z M199.393,239.713c0.586,0,1.094-0.131,1.523-0.391
			c0.43-0.261,0.631-0.606,0.865-1.038c0.232-0.433,0.219-0.908,0.219-1.429v-1.376c0,0.078-0.09,0.148-0.281,0.21
			c-0.192,0.062-0.349,0.117-0.599,0.165c-0.25,0.047-0.465,0.087-0.713,0.12s-0.454,0.062-0.654,0.087
			c-0.537,0.066-0.988,0.17-1.367,0.311c-0.381,0.14-0.668,0.333-0.871,0.579c-0.202,0.246-0.301,0.561-0.301,0.945
			c0,0.578,0.207,1.025,0.62,1.342S198.768,239.713,199.393,239.713z"/>
		<path fill="#FFFFFF" d="M206.873,229.349c-0.227,0-0.422-0.077-0.582-0.232c-0.162-0.154-0.242-0.342-0.242-0.561
			s0.08-0.406,0.242-0.561c0.16-0.155,0.355-0.233,0.582-0.233c0.228,0,0.422,0.078,0.583,0.233
			c0.161,0.154,0.241,0.342,0.241,0.561s-0.08,0.406-0.241,0.561C207.295,229.271,207.101,229.349,206.873,229.349z M206,241v-10h1
			v10H206z"/>
		<path fill="#FFFFFF" d="M211,228v13h-1v-13H211z"/>
		<path fill="#FFFFFF" d="M220.757,233.074l-1.011,0.285c-0.099-0.285-0.239-0.543-0.421-0.775c-0.182-0.23-0.419-0.415-0.71-0.551
			c-0.291-0.137-0.651-0.205-1.082-0.205c-0.645,0-1.173,0.153-1.586,0.459c-0.414,0.306-0.62,0.7-0.62,1.184
			c0,0.409,0.142,0.741,0.425,0.995s0.72,0.455,1.311,0.604l1.438,0.353c0.798,0.194,1.396,0.503,1.794,0.924
			c0.398,0.422,0.599,0.95,0.599,1.587c0,0.537-0.149,1.015-0.446,1.432c-0.298,0.418-0.712,0.745-1.242,0.982
			c-0.531,0.237-1.146,0.356-1.845,0.356c-0.93,0-1.696-0.21-2.3-0.629c-0.604-0.42-0.989-1.026-1.158-1.819l1.059-0.261
			c0.137,0.566,0.404,0.994,0.803,1.283c0.399,0.29,0.926,0.435,1.578,0.435c0.731,0,1.316-0.165,1.754-0.493
			s0.657-0.74,0.657-1.236c0-0.385-0.128-0.708-0.384-0.971c-0.257-0.262-0.645-0.455-1.166-0.579l-1.556-0.372
			c-0.826-0.198-1.438-0.512-1.835-0.942c-0.396-0.43-0.595-0.962-0.595-1.599c0-0.524,0.143-0.986,0.428-1.386
			c0.285-0.398,0.678-0.711,1.178-0.938s1.07-0.341,1.71-0.341c0.873,0,1.57,0.197,2.093,0.592S220.525,232.384,220.757,233.074z"/>
		<path fill="#FFFFFF" d="M231.92,240.704c-0.822,0-1.549-0.209-2.178-0.626c-0.631-0.417-1.123-0.995-1.479-1.732
			s-0.533-1.59-0.533-2.557c0-0.976,0.178-1.834,0.533-2.575c0.355-0.742,0.848-1.32,1.479-1.735
			c0.629-0.416,1.355-0.623,2.178-0.623s1.548,0.208,2.176,0.626c0.628,0.417,1.121,0.996,1.479,1.735s0.536,1.597,0.536,2.572
			c0,0.967-0.178,1.819-0.533,2.557s-0.849,1.315-1.479,1.732S232.742,240.704,231.92,240.704z M231.92,239.694
			c0.661,0,1.221-0.178,1.68-0.533s0.807-0.829,1.045-1.42c0.237-0.591,0.355-1.241,0.355-1.952s-0.118-1.363-0.355-1.959
			c-0.238-0.595-0.586-1.072-1.045-1.432s-1.019-0.539-1.68-0.539c-0.656,0-1.216,0.18-1.676,0.539
			c-0.461,0.359-0.811,0.837-1.049,1.432c-0.236,0.596-0.355,1.248-0.355,1.959s0.119,1.361,0.355,1.952
			c0.238,0.591,0.586,1.064,1.045,1.42S231.259,239.694,231.92,239.694z"/>
		<path fill="#FFFFFF" d="M239,241v-10h1v1h-0.314c0.19,0,0.521-0.643,0.996-0.938c0.473-0.296,1.009-0.331,1.607-0.331
			c0.092,0,0.256,0.058,0.369,0.062c0.111,0.005,0.342,0.065,0.342,0.069v1.122c0-0.009-0.2-0.021-0.325-0.037
			c-0.123-0.017-0.29-0.025-0.434-0.025c-0.496,0-0.953,0.104-1.339,0.313c-0.387,0.209-0.518,0.497-0.741,0.864
			c-0.223,0.368-0.16,0.787-0.16,1.259V241H239z"/>
		<path fill="#FFFFFF" d="M191.285,247c-0.07-1-0.383-1.297-0.937-1.714c-0.554-0.418-1.25-0.64-2.089-0.64
			c-0.591,0-1.111,0.094-1.559,0.297c-0.449,0.202-0.8,0.479-1.055,0.836c-0.254,0.357-0.381,0.761-0.381,1.216
			c0,0.334,0.072,0.627,0.217,0.879s0.34,0.467,0.586,0.647s0.519,0.334,0.818,0.462s0.602,0.235,0.908,0.322l1.339,0.385
			c0.405,0.111,0.81,0.254,1.215,0.428c0.405,0.173,0.776,0.392,1.112,0.653c0.337,0.263,0.607,0.583,0.812,0.961
			c0.204,0.378,0.307,0.832,0.307,1.36c0,0.678-0.176,1.287-0.527,1.829c-0.352,0.541-0.855,0.97-1.512,1.286
			c-0.657,0.315-1.444,0.474-2.361,0.474c-0.864,0-1.614-0.144-2.25-0.431c-0.637-0.287-1.137-0.83-1.5-1.338
			c-0.364-0.508-0.568-0.912-0.614-1.912h1.19c0.041,1,0.207,1.069,0.496,1.416c0.289,0.348,0.664,0.684,1.127,0.864
			s0.98,0.306,1.551,0.306c0.632,0,1.195-0.088,1.688-0.301s0.882-0.502,1.165-0.884s0.425-0.823,0.425-1.331
			c0-0.43-0.111-0.788-0.335-1.079c-0.223-0.292-0.533-0.535-0.933-0.734c-0.399-0.198-0.86-0.372-1.386-0.526l-1.518-0.446
			c-0.996-0.298-1.77-0.709-2.318-1.233c-0.55-0.524-0.824-1.194-0.824-2.008c0-0.683,0.183-1.282,0.548-1.801
			c0.366-0.519,0.862-0.924,1.487-1.215c0.627-0.292,1.33-0.438,2.111-0.438c0.789,0,1.487,0.145,2.095,0.434
			c0.607,0.29,1.09,0.716,1.447,1.222c0.357,0.507,0.548,0.755,0.573,1.755H191.285z"/>
		<path fill="#FFFFFF" d="M198.865,256.662c-0.852,0-1.592-0.213-2.223-0.639c-0.63-0.425-1.119-1.008-1.465-1.748
			c-0.348-0.739-0.521-1.582-0.521-2.528c0-0.955,0.177-1.804,0.53-2.548c0.353-0.743,0.844-1.327,1.472-1.751
			c0.629-0.423,1.357-0.635,2.188-0.635c0.637,0,1.213,0.123,1.73,0.368c0.516,0.246,0.943,0.706,1.279,1.15
			c0.337,0.444,0.549,0.668,0.636,1.668h-1.116c-0.115-1-0.393-1.112-0.834-1.494c-0.439-0.382-0.998-0.631-1.676-0.631
			c-0.607,0-1.145,0.135-1.611,0.463c-0.467,0.329-0.832,0.771-1.094,1.356c-0.264,0.585-0.395,1.255-0.395,2.023
			c0,0.772,0.129,1.451,0.385,2.045c0.256,0.593,0.617,1.055,1.082,1.389c0.465,0.335,1.009,0.502,1.633,0.502
			c0.422,0,0.807-0.081,1.156-0.24c0.349-0.159,0.643-0.229,0.88-0.523c0.237-0.293,0.397-0.891,0.479-0.891h1.116
			c-0.083,0-0.286,0.929-0.61,1.377c-0.324,0.449-0.744,0.723-1.258,0.979C200.113,256.612,199.525,256.662,198.865,256.662z"/>
		<path fill="#FFFFFF" d="M205,256v-9h1v1h0.012c0.189,0,0.521-0.664,0.994-0.959c0.474-0.296,1.01-0.342,1.609-0.342
			c0.09,0,0.093,0.053,0.204,0.057c0.111,0.005,0.181,0.06,0.181,0.063v1.122c0-0.009-0.038-0.021-0.161-0.037
			c-0.125-0.017-0.209-0.025-0.354-0.025c-0.496,0-0.912,0.104-1.299,0.313s-0.66,0.497-0.883,0.864
			c-0.224,0.368-0.304,0.787-0.304,1.259V256H205z"/>
		<path fill="#FFFFFF" d="M214.633,256.662c-0.889,0-1.657-0.208-2.306-0.623c-0.649-0.415-1.149-0.991-1.503-1.729
			c-0.354-0.737-0.53-1.587-0.53-2.55c0-0.959,0.177-1.812,0.53-2.558c0.354-0.745,0.843-1.33,1.469-1.754
			c0.626-0.423,1.35-0.635,2.172-0.635c0.518,0,1.016,0.094,1.494,0.281c0.479,0.188,0.91,0.476,1.293,0.862
			c0.382,0.386,0.437,0.872,0.661,1.456c0.223,0.585,0.087,1.276,0.087,2.073V252h-7v-1h6.366c0-1-0.123-1.133-0.368-1.622
			c-0.246-0.49-0.588-0.862-1.023-1.147s-0.939-0.42-1.51-0.42c-0.603,0-1.134,0.165-1.592,0.487
			c-0.459,0.322-1.021,0.75-1.278,1.278c-0.258,0.529-0.595,1.109-0.595,1.738v0.582c0,0.757,0.333,1.417,0.595,1.98
			c0.263,0.564,0.737,1.001,1.22,1.312c0.483,0.31,1.106,0.465,1.767,0.465c0.45,0,0.871-0.07,1.213-0.211
			c0.34-0.141,0.64-0.33,0.874-0.567c0.233-0.237,0.416-0.499,0.536-0.784l1.051,0.341c-0.145,0.401-0.38,0.771-0.708,1.109
			s-0.737,0.61-1.226,0.815C215.831,256.56,215.27,256.662,214.633,256.662z"/>
		<path fill="#FFFFFF" d="M223.031,256l-2.875-9h1.164l2.257,8h0.081l2.25-8h1.171l2.231,8h0.087l2.256-8h1.165l-2.875,9h-1.141
			l-2.257-7h-0.118l-2.256,7H223.031z"/>
		<path fill="#FFFFFF" d="M241.365,249.032l-1.01,0.285c-0.1-0.285-0.24-0.543-0.422-0.775c-0.182-0.23-0.418-0.415-0.709-0.551
			c-0.291-0.137-0.652-0.205-1.082-0.205c-0.645,0-1.174,0.153-1.586,0.459c-0.414,0.306-0.621,0.7-0.621,1.184
			c0,0.409,0.143,0.741,0.426,0.995c0.282,0.254,0.719,0.455,1.311,0.604l1.438,0.353c0.798,0.194,1.396,0.503,1.795,0.924
			c0.398,0.422,0.598,0.95,0.598,1.587c0,0.537-0.148,1.015-0.445,1.432c-0.299,0.418-0.713,0.745-1.243,0.982
			c-0.531,0.237-1.146,0.356-1.845,0.356c-0.93,0-1.695-0.21-2.299-0.629c-0.604-0.42-0.99-1.026-1.159-1.819l1.06-0.261
			c0.137,0.566,0.404,0.994,0.803,1.283c0.398,0.29,0.925,0.435,1.578,0.435c0.73,0,1.315-0.165,1.754-0.493
			c0.438-0.328,0.656-0.74,0.656-1.236c0-0.385-0.127-0.708-0.384-0.971c-0.257-0.262-0.645-0.455-1.165-0.579l-1.557-0.372
			c-0.826-0.198-1.438-0.512-1.834-0.942c-0.396-0.43-0.596-0.962-0.596-1.599c0-0.524,0.143-0.986,0.428-1.386
			c0.285-0.398,0.678-0.711,1.178-0.938s1.07-0.341,1.711-0.341c0.872,0,1.569,0.197,2.092,0.592
			C240.758,247.8,241.135,248.342,241.365,249.032z"/>
	</g>
	<g>
		<path fill="#FFFFFF" d="M214,174h-22v3h5v32.865l5.5,7.211l5.5-7.211V177h6V174z M205,208.662l-2,2.405l-2-2.405V177h4V208.662z"
			/>
		<path fill="#FFFFFF" d="M229,213v-15.385l3.975-3.456c0.749-0.711,0.949-1.894,0.237-2.643c-0.713-0.75-2.15-0.779-2.898-0.067
			L229,192.456v-3.568l3.975-3.456c0.749-0.711,0.949-1.894,0.237-2.643c-0.713-0.75-2.15-0.779-2.898-0.067L229,183.729v-2.71
			l-5.5-7.211l-5.5,7.211v12.993l-2.823,3.093c-0.749,0.711-0.564,1.894,0.149,2.643c0.368,0.387,0.969,0.582,1.463,0.582
			c0.463,0,0.549-0.17,0.911-0.515l0.3-0.644v3.568l-2.823,3.093c-0.749,0.711-0.564,1.894,0.149,2.643
			c0.368,0.387,0.969,0.582,1.463,0.582c0.463,0,0.549-0.17,0.911-0.515l0.3-0.644V213h-5v4h21v-4H229z M222,182.222l2-2.405
			l2,2.405v4.936l-4,3.427V182.222z M222,195.743l4-3.427v3.568l-4,3.427V195.743z M222,213v-8.53l4-3.427V213H222z"/>
	</g>
</g>
</svg>
