<?xml version="1.0" encoding="utf-8"?>
<!-- Generator: Adobe Illustrator 17.0.0, SVG Export Plug-In . SVG Version: 6.00 Build 0)  -->
<!DOCTYPE svg PUBLIC "-//W3C//DTD SVG 1.1//EN" "http://www.w3.org/Graphics/SVG/1.1/DTD/svg11.dtd">
<svg version="1.1" id="Layer_1" xmlns="http://www.w3.org/2000/svg" xmlns:xlink="http://www.w3.org/1999/xlink" x="0px" y="0px"
	 width="35px" height="35px" viewBox="0 0 35 35" enable-background="new 0 0 35 35" xml:space="preserve">
<g>
	<circle fill-rule="evenodd" clip-rule="evenodd" fill="#727274" cx="17.5" cy="17.5" r="17.5"/>
	<g>
		<g>
			<path fill="#FFFFFF" d="M13.964,27.579c8.547,0,13.221-7.081,13.221-13.221c0-0.201-0.004-0.402-0.013-0.601
				c0.907-0.656,1.696-1.474,2.318-2.406c-0.833,0.37-1.729,0.619-2.669,0.731c0.959-0.575,1.696-1.485,2.043-2.571
				c-0.898,0.532-1.892,0.919-2.951,1.128c-0.848-0.903-2.056-1.468-3.392-1.468c-2.566,0-4.648,2.081-4.648,4.647
				c0,0.365,0.041,0.719,0.121,1.06c-3.862-0.194-7.287-2.043-9.578-4.855c-0.399,0.687-0.629,1.484-0.629,2.336
				c0,1.612,0.82,3.035,2.068,3.868c-0.762-0.023-1.478-0.233-2.105-0.581C7.75,15.664,7.75,15.683,7.75,15.704
				c0,2.251,1.602,4.13,3.728,4.556c-0.39,0.106-0.801,0.163-1.225,0.163c-0.299,0-0.591-0.03-0.874-0.084
				c0.592,1.846,2.307,3.19,4.341,3.228c-1.591,1.246-3.594,1.989-5.771,1.989c-0.375,0-0.745-0.021-1.109-0.064
				C8.897,26.809,11.339,27.579,13.964,27.579"/>
		</g>
	</g>
</g>
</svg>
