<?xml version="1.0" encoding="utf-8"?>
<!-- Generator: Adobe Illustrator 17.0.0, SVG Export Plug-In . SVG Version: 6.00 Build 0)  -->
<!DOCTYPE svg PUBLIC "-//W3C//DTD SVG 1.1//EN" "http://www.w3.org/Graphics/SVG/1.1/DTD/svg11.dtd">
<svg version="1.1" id="Layer_1" xmlns="http://www.w3.org/2000/svg" xmlns:xlink="http://www.w3.org/1999/xlink" x="0px" y="0px"
	 width="338.233px" height="323.111px" viewBox="0 0 338.233 323.111" enable-background="new 0 0 338.233 323.111"
	 xml:space="preserve">
<g>
	<g>
		<rect x="181.475" y="173.622" fill="#4545F9" width="127" height="127"/>
		<circle fill="#FFFFFF" cx="245.641" cy="183.624" r="2.939"/>
	</g>
	<g>
		<rect x="30.475" y="173.622" fill="#4545F9" width="127" height="127"/>
		<circle fill="#FFFFFF" cx="95.447" cy="183.624" r="2.939"/>
	</g>
	<g>
		<rect x="30.475" y="24.622" fill="#4545F9" width="127" height="126"/>
		<circle fill="#FFFFFF" cx="95.447" cy="34.452" r="2.939"/>
	</g>
	<g>
		<path d="M159.731,11.954l4.892-5.168c0.221-0.221,0.441-0.457,0.662-0.708s0.42-0.516,0.598-0.791
			c0.178-0.276,0.322-0.567,0.432-0.874c0.11-0.306,0.166-0.637,0.166-0.993c0-0.76-0.245-1.354-0.735-1.783
			c-0.491-0.43-1.11-0.644-1.857-0.644c-0.675,0-1.245,0.196-1.71,0.588c-0.466,0.393-0.767,0.907-0.901,1.545l-1.287-0.129
			c0.208-1.005,0.668-1.756,1.379-2.253C162.079,0.248,162.938,0,163.943,0c0.502,0,0.98,0.076,1.434,0.229s0.852,0.371,1.196,0.653
			c0.343,0.282,0.616,0.628,0.818,1.039c0.202,0.41,0.303,0.88,0.303,1.406c0,0.503-0.077,0.969-0.23,1.398
			c-0.153,0.429-0.355,0.836-0.607,1.223c-0.251,0.386-0.54,0.751-0.864,1.094c-0.325,0.344-0.653,0.688-0.984,1.03l-4.064,4.175
			h6.842v0.993h-8.056V11.954z"/>
		<path d="M169.92,1.379c0-0.232,0.08-0.429,0.239-0.589c0.159-0.159,0.355-0.238,0.588-0.238c0.232,0,0.429,0.079,0.588,0.238
			c0.159,0.16,0.239,0.356,0.239,0.589c0,0.233-0.08,0.43-0.239,0.589c-0.16,0.159-0.356,0.239-0.588,0.239
			c-0.233,0-0.429-0.08-0.588-0.239C170,1.809,169.92,1.612,169.92,1.379z M170.196,4.744h1.104v8.497h-1.104V4.744z"/>
		<path d="M174.426,7.136c0-0.159-0.006-0.353-0.018-0.58c-0.013-0.227-0.022-0.456-0.028-0.689
			c-0.006-0.232-0.016-0.45-0.027-0.652c-0.013-0.203-0.019-0.359-0.019-0.47h1.104c0.012,0.319,0.021,0.626,0.027,0.92
			s0.021,0.484,0.046,0.57h0.055c0.221-0.466,0.589-0.867,1.104-1.205c0.515-0.337,1.116-0.506,1.802-0.506
			c0.662,0,1.202,0.104,1.619,0.313c0.417,0.208,0.745,0.48,0.984,0.818c0.239,0.337,0.405,0.726,0.497,1.167
			s0.139,0.896,0.139,1.361v5.058h-1.104V8.239c0-0.344-0.031-0.678-0.092-1.003c-0.062-0.324-0.168-0.616-0.322-0.873
			c-0.153-0.258-0.368-0.463-0.644-0.616s-0.635-0.23-1.076-0.23c-0.404,0-0.788,0.071-1.149,0.212s-0.674,0.355-0.938,0.644
			c-0.264,0.288-0.472,0.65-0.625,1.085c-0.153,0.436-0.23,0.947-0.23,1.536v4.248h-1.104V7.136z"/>
	</g>
	<g>
		<path d="M159.731,321.824l4.892-5.168c0.221-0.221,0.441-0.457,0.662-0.708s0.42-0.516,0.598-0.791
			c0.178-0.276,0.322-0.567,0.432-0.874c0.11-0.306,0.166-0.637,0.166-0.993c0-0.76-0.245-1.354-0.735-1.783
			c-0.491-0.43-1.11-0.644-1.857-0.644c-0.675,0-1.245,0.196-1.71,0.588c-0.466,0.393-0.767,0.907-0.901,1.545l-1.287-0.129
			c0.208-1.005,0.668-1.756,1.379-2.253c0.711-0.496,1.569-0.744,2.575-0.744c0.502,0,0.98,0.076,1.434,0.229
			s0.852,0.371,1.196,0.653c0.343,0.282,0.616,0.628,0.818,1.039c0.202,0.41,0.303,0.88,0.303,1.406c0,0.503-0.077,0.969-0.23,1.398
			c-0.153,0.429-0.355,0.836-0.607,1.223c-0.251,0.386-0.54,0.751-0.864,1.094c-0.325,0.344-0.653,0.688-0.984,1.03l-4.064,4.175
			h6.842v0.993h-8.056V321.824z"/>
		<path d="M169.92,311.249c0-0.232,0.08-0.429,0.239-0.589c0.159-0.159,0.355-0.238,0.588-0.238c0.232,0,0.429,0.079,0.588,0.238
			c0.159,0.16,0.239,0.356,0.239,0.589c0,0.233-0.08,0.43-0.239,0.589c-0.16,0.159-0.356,0.239-0.588,0.239
			c-0.233,0-0.429-0.08-0.588-0.239C170,311.679,169.92,311.482,169.92,311.249z M170.196,314.614h1.104v8.497h-1.104V314.614z"/>
		<path d="M174.426,317.006c0-0.159-0.006-0.353-0.018-0.58c-0.013-0.227-0.022-0.456-0.028-0.689
			c-0.006-0.232-0.016-0.45-0.027-0.652c-0.013-0.203-0.019-0.359-0.019-0.47h1.104c0.012,0.319,0.021,0.626,0.027,0.92
			s0.021,0.484,0.046,0.57h0.055c0.221-0.466,0.589-0.867,1.104-1.205c0.515-0.337,1.116-0.506,1.802-0.506
			c0.662,0,1.202,0.104,1.619,0.313c0.417,0.208,0.745,0.48,0.984,0.818c0.239,0.337,0.405,0.726,0.497,1.167
			s0.139,0.896,0.139,1.361v5.058h-1.104v-5.002c0-0.344-0.031-0.678-0.092-1.003c-0.062-0.324-0.168-0.616-0.322-0.873
			c-0.153-0.258-0.368-0.463-0.644-0.616s-0.635-0.23-1.076-0.23c-0.404,0-0.788,0.071-1.149,0.212s-0.674,0.355-0.938,0.644
			c-0.264,0.288-0.472,0.65-0.625,1.085c-0.153,0.436-0.23,0.947-0.23,1.536v4.248h-1.104V317.006z"/>
	</g>
	<g>
		<rect x="181.475" y="24.622" fill="#4545F9" width="127" height="126"/>
		<circle fill="#FFFFFF" cx="245.641" cy="34.452" r="2.939"/>
	</g>
	<g>
		<path fill="#FFFFFF" d="M54.156,94.163h-1.544V83.129h-0.037l-2.335,1.968l-0.919-1.122l3.494-2.832h1.342V94.163z"/>
		<path fill="#FFFFFF" d="M58.681,92.397l4.911-4.781c0.306-0.295,0.576-0.567,0.809-0.818c0.233-0.252,0.426-0.497,0.579-0.736
			s0.267-0.487,0.34-0.744c0.074-0.258,0.11-0.546,0.11-0.865c0-0.343-0.062-0.649-0.184-0.919c-0.123-0.27-0.292-0.5-0.506-0.689
			c-0.215-0.19-0.466-0.338-0.754-0.441c-0.289-0.104-0.598-0.156-0.929-0.156c-0.662,0-1.208,0.189-1.637,0.569
			c-0.429,0.381-0.705,0.883-0.828,1.509l-1.673-0.147c0.085-0.527,0.248-0.996,0.487-1.407c0.239-0.41,0.54-0.751,0.901-1.021
			c0.361-0.27,0.769-0.475,1.223-0.616c0.454-0.141,0.944-0.211,1.472-0.211c0.539,0,1.048,0.076,1.526,0.229
			c0.478,0.153,0.898,0.377,1.26,0.671c0.361,0.295,0.649,0.662,0.864,1.104c0.214,0.441,0.322,0.95,0.322,1.526
			c0,0.516-0.071,0.981-0.211,1.398c-0.141,0.417-0.331,0.8-0.57,1.149c-0.239,0.35-0.509,0.681-0.809,0.993
			s-0.616,0.622-0.947,0.929l-4.009,3.77v0.037h6.639v1.435h-8.386V92.397z"/>
		<path fill="#FFFFFF" d="M69.145,82.19c0-0.282,0.101-0.527,0.303-0.735c0.203-0.209,0.451-0.312,0.745-0.312
			c0.294,0,0.542,0.104,0.745,0.312c0.203,0.208,0.304,0.453,0.304,0.735c0,0.307-0.099,0.559-0.294,0.754
			c-0.196,0.196-0.448,0.295-0.754,0.295c-0.307,0-0.558-0.099-0.754-0.295C69.243,82.749,69.145,82.497,69.145,82.19z
			 M69.476,85.556h1.435v8.607h-1.435V85.556z"/>
		<path fill="#FFFFFF" d="M73.761,87.598c0-0.393-0.012-0.761-0.037-1.104c-0.025-0.343-0.037-0.656-0.037-0.938h1.361
			c0,0.233,0.006,0.467,0.018,0.699c0.012,0.233,0.019,0.473,0.019,0.718h0.037c0.098-0.209,0.236-0.411,0.414-0.607
			s0.389-0.371,0.634-0.524s0.521-0.275,0.828-0.367c0.307-0.093,0.638-0.139,0.993-0.139c0.564,0,1.051,0.086,1.462,0.258
			c0.41,0.172,0.75,0.411,1.021,0.718c0.27,0.307,0.469,0.677,0.598,1.112s0.193,0.91,0.193,1.425v5.315h-1.435v-5.168
			c0-0.724-0.16-1.293-0.479-1.71s-0.815-0.626-1.49-0.626c-0.466,0-0.867,0.08-1.205,0.239c-0.337,0.159-0.613,0.387-0.827,0.681
			c-0.215,0.294-0.375,0.644-0.479,1.048c-0.104,0.405-0.156,0.853-0.156,1.343v4.193h-1.435V87.598z"/>
		<path fill="#FFFFFF" d="M91.325,89.528l-3.09-3.973h1.876l2.28,3.09l2.152-3.09h1.747l-2.961,3.973l3.549,4.635h-1.894
			l-2.722-3.715l-2.686,3.715h-1.784L91.325,89.528z"/>
		<path fill="#FFFFFF" d="M108.667,94.163h-1.544V83.129h-0.037l-2.335,1.968l-0.919-1.122l3.494-2.832h1.342V94.163z"/>
		<path fill="#FFFFFF" d="M113.191,92.397l4.911-4.781c0.306-0.295,0.576-0.567,0.809-0.818c0.233-0.252,0.426-0.497,0.579-0.736
			s0.267-0.487,0.34-0.744c0.074-0.258,0.11-0.546,0.11-0.865c0-0.343-0.062-0.649-0.184-0.919c-0.123-0.27-0.292-0.5-0.506-0.689
			c-0.215-0.19-0.466-0.338-0.754-0.441c-0.289-0.104-0.598-0.156-0.929-0.156c-0.662,0-1.208,0.189-1.637,0.569
			c-0.429,0.381-0.705,0.883-0.828,1.509l-1.673-0.147c0.085-0.527,0.248-0.996,0.487-1.407c0.239-0.41,0.54-0.751,0.901-1.021
			c0.361-0.27,0.769-0.475,1.223-0.616c0.454-0.141,0.944-0.211,1.472-0.211c0.539,0,1.048,0.076,1.526,0.229
			c0.478,0.153,0.898,0.377,1.26,0.671c0.361,0.295,0.649,0.662,0.864,1.104c0.214,0.441,0.322,0.95,0.322,1.526
			c0,0.516-0.071,0.981-0.211,1.398c-0.141,0.417-0.331,0.8-0.57,1.149c-0.239,0.35-0.509,0.681-0.809,0.993
			s-0.616,0.622-0.947,0.929l-4.009,3.77v0.037h6.639v1.435h-8.386V92.397z"/>
		<path fill="#FFFFFF" d="M123.656,82.19c0-0.282,0.101-0.527,0.303-0.735c0.203-0.209,0.451-0.312,0.745-0.312
			c0.294,0,0.542,0.104,0.745,0.312c0.203,0.208,0.304,0.453,0.304,0.735c0,0.307-0.099,0.559-0.294,0.754
			c-0.196,0.196-0.448,0.295-0.754,0.295c-0.307,0-0.558-0.099-0.754-0.295C123.754,82.749,123.656,82.497,123.656,82.19z
			 M123.987,85.556h1.435v8.607h-1.435V85.556z"/>
		<path fill="#FFFFFF" d="M128.272,87.598c0-0.393-0.012-0.761-0.037-1.104c-0.025-0.343-0.037-0.656-0.037-0.938h1.361
			c0,0.233,0.006,0.467,0.018,0.699c0.012,0.233,0.019,0.473,0.019,0.718h0.037c0.098-0.209,0.236-0.411,0.414-0.607
			s0.389-0.371,0.634-0.524s0.521-0.275,0.828-0.367c0.307-0.093,0.638-0.139,0.993-0.139c0.564,0,1.051,0.086,1.462,0.258
			c0.41,0.172,0.75,0.411,1.021,0.718c0.27,0.307,0.469,0.677,0.598,1.112s0.193,0.91,0.193,1.425v5.315h-1.435v-5.168
			c0-0.724-0.16-1.293-0.479-1.71s-0.815-0.626-1.49-0.626c-0.466,0-0.867,0.08-1.205,0.239c-0.337,0.159-0.613,0.387-0.827,0.681
			c-0.215,0.294-0.375,0.644-0.479,1.048c-0.104,0.405-0.156,0.853-0.156,1.343v4.193h-1.435V87.598z"/>
	</g>
	<g>
		<path d="M0,166.933l4.892-5.168c0.221-0.221,0.441-0.457,0.662-0.708s0.42-0.516,0.598-0.791c0.178-0.276,0.322-0.567,0.432-0.874
			c0.11-0.306,0.166-0.637,0.166-0.993c0-0.76-0.245-1.354-0.735-1.783c-0.491-0.43-1.11-0.644-1.857-0.644
			c-0.675,0-1.245,0.196-1.71,0.588c-0.466,0.393-0.767,0.907-0.901,1.545l-1.287-0.129c0.208-1.005,0.668-1.756,1.379-2.253
			c0.711-0.496,1.569-0.744,2.575-0.744c0.502,0,0.98,0.076,1.434,0.229s0.852,0.371,1.196,0.653
			c0.343,0.282,0.616,0.628,0.818,1.039c0.202,0.41,0.303,0.88,0.303,1.406c0,0.503-0.077,0.969-0.23,1.398
			c-0.153,0.429-0.355,0.836-0.607,1.223c-0.251,0.386-0.54,0.751-0.864,1.094c-0.325,0.344-0.653,0.688-0.984,1.03l-4.064,4.175
			h6.842v0.993H0V166.933z"/>
		<path d="M10.188,156.357c0-0.232,0.08-0.429,0.239-0.589c0.159-0.159,0.355-0.238,0.588-0.238c0.232,0,0.429,0.079,0.588,0.238
			c0.159,0.16,0.239,0.356,0.239,0.589c0,0.233-0.08,0.43-0.239,0.589c-0.16,0.159-0.356,0.239-0.588,0.239
			c-0.233,0-0.429-0.08-0.588-0.239C10.268,156.787,10.188,156.591,10.188,156.357z M10.464,159.723h1.104v8.497h-1.104V159.723z"/>
		<path d="M14.694,162.114c0-0.159-0.006-0.353-0.018-0.58c-0.013-0.227-0.022-0.456-0.028-0.689
			c-0.006-0.232-0.016-0.45-0.027-0.652c-0.013-0.203-0.019-0.359-0.019-0.47h1.104c0.012,0.319,0.021,0.626,0.027,0.92
			s0.021,0.484,0.046,0.57h0.055c0.221-0.466,0.589-0.867,1.104-1.205c0.515-0.337,1.116-0.506,1.802-0.506
			c0.662,0,1.202,0.104,1.619,0.313c0.417,0.208,0.745,0.48,0.984,0.818c0.239,0.337,0.405,0.726,0.497,1.167
			s0.138,0.896,0.138,1.361v5.058h-1.104v-5.002c0-0.344-0.031-0.678-0.092-1.003c-0.062-0.324-0.168-0.616-0.322-0.873
			c-0.153-0.258-0.368-0.463-0.644-0.616s-0.635-0.23-1.076-0.23c-0.404,0-0.788,0.071-1.149,0.212s-0.674,0.355-0.938,0.644
			c-0.264,0.288-0.472,0.65-0.625,1.085c-0.153,0.436-0.23,0.947-0.23,1.536v4.248h-1.104V162.114z"/>
	</g>
	<g>
		<g>
			<rect x="38.475" y="151.622" fill="#FF0000" width="1" height="21"/>
		</g>
		<g>
			<rect x="30.475" y="150.622" fill="#FF0000" width="17" height="1"/>
		</g>
		<g>
			<rect x="30.475" y="172.622" fill="#FF0000" width="17" height="1"/>
		</g>
	</g>
	<g>
		<g>
			<rect x="158.475" y="32.622" fill="#FF0000" width="22" height="1"/>
		</g>
		<g>
			<rect x="157.475" y="24.622" fill="#FF0000" width="1" height="17"/>
		</g>
		<g>
			<rect x="180.475" y="24.622" fill="#FF0000" width="1" height="17"/>
		</g>
	</g>
	<g>
		<path d="M316.256,166.932l4.892-5.168c0.221-0.221,0.441-0.457,0.662-0.708s0.42-0.516,0.598-0.791
			c0.178-0.276,0.321-0.567,0.433-0.874c0.109-0.306,0.165-0.637,0.165-0.993c0-0.76-0.245-1.354-0.735-1.783
			c-0.49-0.43-1.109-0.644-1.857-0.644c-0.675,0-1.244,0.196-1.711,0.588c-0.466,0.393-0.766,0.907-0.9,1.545l-1.287-0.129
			c0.207-1.005,0.668-1.756,1.379-2.253c0.711-0.496,1.568-0.744,2.574-0.744c0.503,0,0.98,0.076,1.435,0.229
			s0.853,0.371,1.196,0.653c0.342,0.282,0.615,0.628,0.818,1.039c0.201,0.41,0.303,0.88,0.303,1.406c0,0.503-0.076,0.969-0.23,1.398
			c-0.152,0.429-0.355,0.836-0.606,1.223c-0.251,0.386-0.54,0.751-0.864,1.094c-0.324,0.344-0.652,0.688-0.984,1.03l-4.064,4.175
			h6.842v0.993h-8.055V166.932z"/>
		<path d="M326.444,156.356c0-0.232,0.08-0.429,0.24-0.589c0.158-0.159,0.355-0.238,0.588-0.238s0.429,0.079,0.588,0.238
			c0.16,0.16,0.24,0.356,0.24,0.589c0,0.233-0.08,0.43-0.24,0.589c-0.159,0.159-0.355,0.239-0.588,0.239s-0.43-0.08-0.588-0.239
			C326.524,156.786,326.444,156.59,326.444,156.356z M326.72,159.722h1.104v8.497h-1.104V159.722z"/>
		<path d="M330.95,162.113c0-0.159-0.006-0.353-0.018-0.58c-0.013-0.227-0.021-0.456-0.027-0.689
			c-0.007-0.232-0.016-0.45-0.027-0.652c-0.014-0.203-0.02-0.359-0.02-0.47h1.104c0.012,0.319,0.021,0.626,0.027,0.92
			c0.007,0.294,0.021,0.484,0.047,0.57h0.055c0.221-0.466,0.589-0.867,1.104-1.205c0.516-0.337,1.115-0.506,1.803-0.506
			c0.662,0,1.201,0.104,1.618,0.313c0.417,0.208,0.745,0.48,0.983,0.818c0.24,0.337,0.405,0.726,0.497,1.167
			s0.138,0.896,0.138,1.361v5.058h-1.104v-5.002c0-0.344-0.03-0.678-0.092-1.003c-0.062-0.324-0.168-0.616-0.322-0.873
			c-0.152-0.258-0.367-0.463-0.643-0.616c-0.276-0.153-0.635-0.23-1.076-0.23c-0.404,0-0.788,0.071-1.15,0.212
			c-0.361,0.141-0.674,0.355-0.938,0.644s-0.472,0.65-0.625,1.085c-0.153,0.436-0.23,0.947-0.23,1.536v4.248h-1.104V162.113z"/>
	</g>
	<g>
		<g>
			<rect x="299.475" y="151.622" fill="#FF0000" width="1" height="21"/>
		</g>
		<g>
			<rect x="291.475" y="150.622" fill="#FF0000" width="18" height="1"/>
		</g>
		<g>
			<rect x="291.475" y="172.622" fill="#FF0000" width="18" height="1"/>
		</g>
	</g>
	<g>
		<g>
			<rect x="158.475" y="291.622" fill="#FF0000" width="22" height="1"/>
		</g>
		<g>
			<rect x="157.475" y="283.622" fill="#FF0000" width="1" height="18"/>
		</g>
		<g>
			<rect x="180.475" y="283.622" fill="#FF0000" width="1" height="18"/>
		</g>
	</g>
</g>
</svg>
