<?xml version="1.0" encoding="utf-8"?>
<!-- Generator: Adobe Illustrator 17.0.0, SVG Export Plug-In . SVG Version: 6.00 Build 0)  -->
<!DOCTYPE svg PUBLIC "-//W3C//DTD SVG 1.1//EN" "http://www.w3.org/Graphics/SVG/1.1/DTD/svg11.dtd">
<svg version="1.1" id="Layer_1" xmlns="http://www.w3.org/2000/svg" xmlns:xlink="http://www.w3.org/1999/xlink" x="0px" y="0px"
	 width="18.829px" height="13.508px" viewBox="9.232 7.67 18.829 13.508" enable-background="new 9.232 7.67 18.829 13.508"
	 xml:space="preserve">
<g>
	<g>
		<path fill="#4E4E50" d="M27.962,8.93c-0.003-0.009-0.007-0.018-0.01-0.028c-0.004-0.012-0.008-0.023-0.012-0.035
			c-0.004-0.012-0.009-0.023-0.013-0.034c-0.004-0.012-0.009-0.023-0.014-0.035c-0.005-0.011-0.01-0.022-0.014-0.033
			c-0.005-0.011-0.01-0.023-0.015-0.034c-0.005-0.011-0.01-0.022-0.016-0.032c-0.005-0.011-0.011-0.022-0.016-0.034
			c-0.005-0.01-0.011-0.021-0.016-0.031c-0.006-0.011-0.012-0.022-0.018-0.033c-0.006-0.01-0.012-0.021-0.018-0.031
			c-0.006-0.011-0.012-0.021-0.019-0.032c-0.006-0.01-0.012-0.02-0.019-0.03c-0.007-0.01-0.013-0.021-0.02-0.031
			c-0.007-0.01-0.013-0.019-0.02-0.029c-0.007-0.01-0.014-0.02-0.021-0.03c-0.007-0.009-0.014-0.019-0.021-0.028
			c-0.007-0.01-0.015-0.02-0.022-0.029c-0.007-0.009-0.015-0.018-0.022-0.026c-0.008-0.01-0.016-0.019-0.024-0.029
			c-0.007-0.009-0.015-0.017-0.023-0.025c-0.008-0.009-0.016-0.019-0.025-0.028c-0.008-0.008-0.016-0.016-0.023-0.024
			c-0.009-0.009-0.017-0.018-0.026-0.027c-0.008-0.008-0.016-0.016-0.024-0.023c-0.009-0.009-0.018-0.017-0.027-0.026
			c-0.008-0.007-0.017-0.015-0.025-0.022c-0.009-0.008-0.019-0.017-0.028-0.025c-0.008-0.007-0.017-0.014-0.026-0.021
			c-0.01-0.008-0.019-0.016-0.029-0.024c-0.009-0.007-0.018-0.013-0.027-0.02c-0.01-0.008-0.02-0.015-0.03-0.023
			C27.292,8.012,27.282,8.006,27.273,8c-0.01-0.007-0.02-0.014-0.031-0.021c-0.009-0.006-0.019-0.012-0.028-0.018
			c-0.011-0.007-0.021-0.013-0.031-0.02c-0.01-0.006-0.02-0.011-0.029-0.017c-0.01-0.006-0.021-0.013-0.032-0.019
			c-0.01-0.005-0.02-0.011-0.03-0.016c-0.011-0.006-0.022-0.012-0.033-0.017c-0.01-0.005-0.02-0.01-0.031-0.015
			c-0.011-0.006-0.022-0.011-0.033-0.016c-0.01-0.005-0.021-0.009-0.032-0.014c-0.011-0.005-0.022-0.01-0.033-0.015
			c-0.011-0.005-0.022-0.009-0.033-0.013c-0.011-0.004-0.022-0.009-0.034-0.013c-0.011-0.004-0.022-0.008-0.033-0.012
			c-0.011-0.004-0.023-0.008-0.034-0.012c-0.012-0.004-0.023-0.007-0.035-0.011c-0.011-0.003-0.023-0.007-0.034-0.01
			c-0.012-0.003-0.024-0.006-0.035-0.009c-0.012-0.003-0.023-0.006-0.035-0.009c-0.012-0.003-0.024-0.006-0.036-0.008
			c-0.011-0.003-0.023-0.005-0.034-0.008c-0.013-0.003-0.026-0.005-0.039-0.007c-0.011-0.002-0.022-0.004-0.033-0.006
			c-0.013-0.002-0.027-0.004-0.041-0.006c-0.011-0.001-0.021-0.003-0.032-0.004c-0.014-0.002-0.029-0.003-0.044-0.004
			c-0.01-0.001-0.02-0.002-0.03-0.003c-0.016-0.001-0.032-0.002-0.049-0.003c-0.008,0-0.017-0.001-0.025-0.002
			c-0.025-0.001-0.05-0.002-0.075-0.002H11.074c-0.025,0-0.05,0.001-0.075,0.002c-0.009,0-0.017,0.001-0.025,0.002
			c-0.016,0.001-0.033,0.002-0.049,0.003c-0.01,0.001-0.02,0.002-0.03,0.003c-0.015,0.002-0.029,0.003-0.044,0.004
			c-0.011,0.001-0.021,0.003-0.032,0.004c-0.014,0.002-0.027,0.004-0.041,0.006c-0.011,0.002-0.022,0.004-0.033,0.006
			c-0.013,0.002-0.026,0.004-0.039,0.007c-0.011,0.002-0.023,0.005-0.034,0.007c-0.012,0.003-0.024,0.005-0.036,0.008
			c-0.012,0.003-0.023,0.006-0.035,0.009c-0.012,0.003-0.024,0.006-0.035,0.009c-0.012,0.003-0.023,0.007-0.034,0.011
			c-0.012,0.003-0.023,0.007-0.034,0.011c-0.011,0.004-0.023,0.008-0.034,0.012c-0.011,0.004-0.022,0.007-0.033,0.012
			c-0.011,0.004-0.022,0.009-0.034,0.013c-0.011,0.004-0.022,0.008-0.033,0.013c-0.011,0.005-0.022,0.01-0.034,0.015
			c-0.011,0.005-0.021,0.009-0.031,0.014c-0.011,0.005-0.022,0.011-0.033,0.016c-0.01,0.005-0.02,0.01-0.031,0.015
			c-0.011,0.006-0.022,0.012-0.033,0.017c-0.01,0.005-0.02,0.011-0.03,0.016c-0.011,0.006-0.021,0.012-0.032,0.019
			c-0.01,0.006-0.02,0.011-0.029,0.017C10.1,7.947,10.09,7.953,10.079,7.96c-0.009,0.006-0.019,0.012-0.029,0.018
			c-0.01,0.007-0.02,0.014-0.03,0.021c-0.009,0.006-0.019,0.013-0.028,0.019c-0.01,0.007-0.02,0.015-0.03,0.022
			c-0.009,0.007-0.018,0.013-0.027,0.02c-0.01,0.008-0.019,0.016-0.029,0.024C9.899,8.092,9.89,8.099,9.882,8.107
			c-0.01,0.008-0.019,0.016-0.028,0.025C9.845,8.139,9.837,8.146,9.829,8.154C9.819,8.162,9.811,8.171,9.802,8.179
			C9.794,8.187,9.785,8.195,9.777,8.203C9.769,8.211,9.76,8.221,9.751,8.229C9.744,8.238,9.736,8.246,9.728,8.254
			C9.72,8.263,9.712,8.272,9.703,8.282C9.696,8.29,9.688,8.298,9.681,8.307C9.673,8.316,9.665,8.326,9.657,8.336
			C9.65,8.344,9.642,8.353,9.635,8.362c-0.008,0.01-0.015,0.02-0.023,0.03C9.606,8.401,9.599,8.41,9.592,8.419
			c-0.007,0.01-0.014,0.02-0.021,0.03c-0.007,0.009-0.013,0.019-0.02,0.029c-0.007,0.01-0.013,0.02-0.02,0.031
			c-0.006,0.01-0.013,0.02-0.019,0.029C9.506,8.549,9.5,8.56,9.493,8.57c-0.006,0.01-0.012,0.02-0.018,0.031
			C9.469,8.612,9.464,8.623,9.458,8.634c-0.006,0.01-0.011,0.021-0.017,0.031C9.436,8.676,9.43,8.687,9.425,8.698
			C9.42,8.709,9.414,8.72,9.409,8.731c-0.005,0.011-0.01,0.023-0.015,0.034C9.389,8.776,9.385,8.787,9.38,8.798
			C9.375,8.81,9.371,8.821,9.366,8.833C9.362,8.844,9.357,8.856,9.353,8.867C9.349,8.879,9.345,8.89,9.341,8.902
			C9.338,8.911,9.334,8.92,9.331,8.93C9.265,9.11,9.232,9.305,9.232,9.512v9.824c0,0.993,0.789,1.804,1.773,1.84
			c0.011,0,0.021,0.001,0.032,0.001c0.012,0,0.025,0.001,0.037,0.001H26.23c0.804,0,1.506-0.513,1.748-1.276
			c0.009-0.029,0.016-0.059,0.021-0.089c0.041-0.152,0.063-0.312,0.063-0.477V9.512C28.061,9.305,28.028,9.11,27.962,8.93
			L27.962,8.93z M10.699,9.028c0.008-0.006,0.015-0.012,0.023-0.018c0.006-0.004,0.012-0.008,0.018-0.012
			c0.008-0.005,0.016-0.011,0.024-0.015c0.006-0.004,0.012-0.007,0.019-0.011c0.008-0.005,0.017-0.009,0.025-0.013
			c0.006-0.003,0.013-0.006,0.02-0.009c0.009-0.004,0.018-0.008,0.026-0.011c0.007-0.003,0.013-0.005,0.02-0.007
			c0.009-0.003,0.019-0.006,0.028-0.009c0.007-0.002,0.013-0.004,0.02-0.006c0.01-0.003,0.02-0.005,0.03-0.007
			c0.007-0.001,0.013-0.003,0.02-0.004c0.011-0.002,0.022-0.003,0.034-0.005C11.012,8.901,11.017,8.9,11.023,8.9
			c0.017-0.002,0.034-0.002,0.051-0.002h15.145c0.017,0,0.034,0.001,0.051,0.002c0.006,0,0.011,0.001,0.017,0.002
			c0.011,0.001,0.023,0.003,0.034,0.005c0.007,0.001,0.013,0.003,0.02,0.004c0.01,0.002,0.02,0.004,0.03,0.007
			c0.007,0.002,0.013,0.004,0.02,0.006c0.009,0.003,0.019,0.006,0.028,0.009c0.007,0.002,0.013,0.005,0.02,0.007
			c0.009,0.004,0.018,0.007,0.026,0.011c0.007,0.003,0.013,0.006,0.02,0.009c0.008,0.004,0.017,0.008,0.025,0.013
			c0.006,0.003,0.013,0.007,0.019,0.011c0.008,0.005,0.016,0.01,0.024,0.015c0.006,0.004,0.012,0.008,0.018,0.012
			c0.008,0.006,0.016,0.012,0.024,0.018c0.004,0.003,0.008,0.006,0.012,0.01l-7.526,7.526c-0.116,0.116-0.27,0.179-0.434,0.179
			c-0.164,0-0.318-0.064-0.434-0.179l-7.526-7.526C10.691,9.034,10.695,9.031,10.699,9.028L10.699,9.028z M10.46,10.548l3.881,3.881
			l-3.881,3.881V10.548z M26.219,19.949H11.084c-0.144,0-0.281-0.052-0.387-0.14l4.513-4.513l2.136,2.135
			c0.347,0.348,0.81,0.539,1.302,0.539c0.492,0,0.954-0.192,1.302-0.539l2.146-2.146l4.519,4.519
			C26.507,19.895,26.369,19.949,26.219,19.949L26.219,19.949z M26.833,18.289l-3.871-3.871l3.871-3.871V18.289z M26.833,18.289"/>
	</g>
</g>
</svg>
