<?xml version="1.0" encoding="utf-8"?>
<!-- Generator: Adobe Illustrator 17.0.0, SVG Export Plug-In . SVG Version: 6.00 Build 0)  -->
<!DOCTYPE svg PUBLIC "-//W3C//DTD SVG 1.1//EN" "http://www.w3.org/Graphics/SVG/1.1/DTD/svg11.dtd">
<svg version="1.1" id="Layer_1" xmlns="http://www.w3.org/2000/svg" xmlns:xlink="http://www.w3.org/1999/xlink" x="0px" y="0px"
	 width="40.053px" height="40.053px" viewBox="0 0 40.053 40.053" enable-background="new 0 0 40.053 40.053" xml:space="preserve">
<g>
	<path fill="#F6F7FA" d="M40.053,31.906c0,4.499-3.647,8.146-8.146,8.146H8.146C3.647,40.053,0,36.405,0,31.906V8.146
		C0,3.647,3.647,0,8.146,0h23.76c4.499,0,8.146,3.647,8.146,8.146V31.906z"/>
	<g>
		<path fill="#33ADFB" d="M19.809,8.859c-6.08,0-11,4.92-11,11c0,6.08,4.92,11,11,11c6.08,0,11-4.92,11-11
			C30.809,13.78,25.889,8.859,19.809,8.859z M19.809,29.324c-5.219,0-9.465-4.246-9.465-9.465c0-5.219,4.246-9.465,9.465-9.465
			c5.219,0,9.465,4.246,9.465,9.465C29.274,25.078,25.028,29.324,19.809,29.324z"/>
		<path fill="#33ADFB" d="M20.291,18.029c-0.652,0-0.993,0.275-0.993,0.681v5.517c0,0.348,0.341,0.695,0.993,0.695
			c0.623,0,1.007-0.347,1.007-0.695v-5.517C21.298,18.304,20.913,18.029,20.291,18.029z"/>
		<path fill="#33ADFB" d="M19.809,14.626c-0.666,0-1.187,0.478-1.187,1.028c0,0.55,0.521,1.043,1.187,1.043
			c0.651,0,1.173-0.492,1.173-1.043C20.982,15.104,20.46,14.626,19.809,14.626z"/>
	</g>
</g>
</svg>
