<?xml version="1.0" encoding="utf-8"?>
<!-- Generator: Adobe Illustrator 17.0.0, SVG Export Plug-In . SVG Version: 6.00 Build 0)  -->
<!DOCTYPE svg PUBLIC "-//W3C//DTD SVG 1.1//EN" "http://www.w3.org/Graphics/SVG/1.1/DTD/svg11.dtd">
<svg version="1.1" id="Layer_1" xmlns="http://www.w3.org/2000/svg" xmlns:xlink="http://www.w3.org/1999/xlink" x="0px" y="0px"
	 width="22.038px" height="22.038px" viewBox="6.482 6.481 22.038 22.038" enable-background="new 6.482 6.481 22.038 22.038"
	 xml:space="preserve">
<g>
	<g>
		<g>
			<path fill="#FFFFFF" d="M17.5,8.467c2.942,0,3.291,0.011,4.452,0.064C23.027,8.58,23.61,8.76,23.998,8.91
				c0.514,0.2,0.881,0.439,1.267,0.824c0.386,0.386,0.624,0.753,0.824,1.267c0.151,0.388,0.33,0.972,0.379,2.046
				c0.053,1.162,0.064,1.51,0.064,4.452s-0.011,3.291-0.064,4.452c-0.049,1.074-0.229,1.658-0.379,2.046
				c-0.2,0.514-0.439,0.881-0.824,1.267c-0.386,0.386-0.753,0.624-1.267,0.824c-0.388,0.151-0.972,0.33-2.046,0.379
				c-1.162,0.053-1.51,0.064-4.452,0.064s-3.291-0.011-4.452-0.064c-1.074-0.049-1.658-0.229-2.046-0.379
				c-0.514-0.2-0.881-0.439-1.267-0.824C9.349,24.88,9.11,24.513,8.91,23.998c-0.151-0.388-0.33-0.972-0.379-2.046
				c-0.053-1.162-0.064-1.51-0.064-4.452s0.011-3.291,0.064-4.452C8.58,11.973,8.76,11.39,8.91,11.002
				c0.2-0.514,0.439-0.881,0.824-1.267c0.386-0.386,0.753-0.624,1.267-0.824c0.388-0.151,0.972-0.33,2.046-0.379
				C14.209,8.478,14.558,8.467,17.5,8.467 M17.5,6.481c-2.992,0-3.368,0.013-4.543,0.066c-1.173,0.054-1.974,0.24-2.675,0.512
				C9.558,7.342,8.943,7.718,8.331,8.331C7.718,8.943,7.342,9.558,7.06,10.282c-0.272,0.701-0.459,1.502-0.512,2.675
				c-0.054,1.175-0.066,1.55-0.066,4.543c0,2.992,0.013,3.368,0.066,4.543c0.054,1.173,0.24,1.974,0.512,2.675
				c0.282,0.725,0.658,1.339,1.271,1.952c0.613,0.613,1.227,0.989,1.952,1.271c0.701,0.272,1.502,0.459,2.675,0.512
				c1.175,0.054,1.55,0.066,4.543,0.066c2.992,0,3.368-0.013,4.543-0.066c1.173-0.054,1.974-0.24,2.675-0.512
				c0.725-0.282,1.339-0.658,1.952-1.271c0.613-0.613,0.989-1.227,1.271-1.952c0.272-0.701,0.459-1.502,0.512-2.675
				c0.054-1.175,0.066-1.55,0.066-4.543s-0.013-3.368-0.066-4.543c-0.054-1.173-0.24-1.974-0.512-2.675
				c-0.282-0.725-0.658-1.339-1.271-1.952c-0.613-0.613-1.227-0.989-1.952-1.271c-0.701-0.272-1.502-0.459-2.675-0.512
				C20.868,6.494,20.492,6.481,17.5,6.481L17.5,6.481z"/>
			<path fill="#FFFFFF" d="M17.5,11.842c-3.125,0-5.658,2.533-5.658,5.658s2.533,5.658,5.658,5.658s5.658-2.533,5.658-5.658
				S20.625,11.842,17.5,11.842z M17.5,21.173c-2.028,0-3.673-1.644-3.673-3.673s1.644-3.673,3.673-3.673s3.673,1.644,3.673,3.673
				S19.528,21.173,17.5,21.173z"/>
			<circle fill="#FFFFFF" cx="23.382" cy="11.618" r="1.322"/>
		</g>
	</g>
</g>
</svg>
