<?xml version="1.0" encoding="utf-8"?>
<!-- Generator: Adobe Illustrator 17.0.0, SVG Export Plug-In . SVG Version: 6.00 Build 0)  -->
<!DOCTYPE svg PUBLIC "-//W3C//DTD SVG 1.1//EN" "http://www.w3.org/Graphics/SVG/1.1/DTD/svg11.dtd">
<svg version="1.1" id="Layer_1" xmlns="http://www.w3.org/2000/svg" xmlns:xlink="http://www.w3.org/1999/xlink" x="0px" y="0px"
	 width="16.397px" height="16.397px" viewBox="10.448 6.225 16.397 16.397" enable-background="new 10.448 6.225 16.397 16.397"
	 xml:space="preserve">
<path fill="#4E4E50" d="M10.448,8.156c0-0.48,0.179-0.947,0.504-1.304c0.364-0.399,0.882-0.628,1.422-0.628h2.586
	c0.981,0,1.804,0.732,1.914,1.704c0.064,0.572,0.182,1.139,0.35,1.688c0.21,0.686,0.028,1.425-0.475,1.929L15.7,12.592
	c1.098,2.007,2.771,3.68,4.778,4.778l1.048-1.048c0.503-0.503,1.242-0.685,1.929-0.475c0.548,0.168,1.116,0.285,1.687,0.35
	c0.971,0.109,1.704,0.932,1.704,1.913v2.586c0,0.54-0.229,1.058-0.628,1.422c-0.4,0.365-0.94,0.546-1.481,0.496
	c-1.856-0.171-3.647-0.663-5.325-1.462c-1.631-0.777-3.109-1.821-4.391-3.103c-1.282-1.282-2.327-2.76-3.103-4.391
	c-0.799-1.678-1.291-3.47-1.462-5.325C10.451,8.274,10.448,8.215,10.448,8.156L10.448,8.156z M16.028,10.186
	c0-0.065-0.01-0.131-0.029-0.195c-0.191-0.624-0.325-1.269-0.398-1.919c-0.036-0.323-0.312-0.566-0.64-0.566h-2.586
	c-0.183,0-0.352,0.075-0.475,0.21c-0.125,0.137-0.184,0.314-0.167,0.5c0.641,6.963,6.16,12.482,13.123,13.123
	c0.185,0.017,0.363-0.042,0.5-0.167c0.135-0.124,0.21-0.292,0.21-0.475V18.11c0-0.329-0.243-0.604-0.566-0.641
	c-0.65-0.073-1.295-0.207-1.919-0.398c-0.232-0.071-0.48-0.011-0.648,0.156l-1.706,1.706l-0.412-0.205
	c-2.571-1.279-4.692-3.4-5.971-5.972l-0.205-0.412l1.706-1.706C15.963,10.518,16.028,10.355,16.028,10.186L16.028,10.186z
	 M16.028,10.186"/>
</svg>
